{"accessors":[{"bufferView":0,"componentType":5123,"count":102,"max":[43],"min":[0],"type":"SCALAR"},{"bufferView":1,"componentType":5126,"count":44,"max":[11174.046875,11173.9375,1478.03125],"min":[-11174.015625,-11174.125,-1477.9375],"type":"VEC3"},{"bufferView":2,"componentType":5126,"count":44,"max":[0.9776055812835693,0.9776061177253723,1.0],"min":[-0.9776055812835693,-0.9776049852371216,0.0],"type":"VEC3"},{"bufferView":3,"componentType":5126,"count":44,"max":[0.9980080127716064,0.998079439275898],"min":[0.0019920319318771362,0.03779911994934082],"type":"VEC2"},{"bufferView":4,"componentType":5123,"count":102,"max":[43],"min":[0],"type":"SCALAR"},{"bufferView":5,"componentType":5126,"count":44,"max":[11174.046875,11173.9375,1478.03125],"min":[-11174.015625,-11174.125,-1477.9375],"type":"VEC3"},{"bufferView":6,"componentType":5126,"count":44,"max":[0.9776055812835693,0.9776061177253723,1.0],"min":[-0.9776055812835693,-0.9776049852371216,0.0],"type":"VEC3"},{"bufferView":7,"componentType":5126,"count":44,"max":[0.9980080127716064,0.998079439275898],"min":[0.0019920319318771362,0.03779911994934082],"type":"VEC2"},{"bufferView":8,"componentType":5123,"count":228,"max":[139],"min":[0],"type":"SCALAR"},{"bufferView":9,"componentType":5126,"count":140,"max":[18398.28125,26530.3125,2250.0],"min":[-18398.28125,-26530.28125,-2250.0],"type":"VEC3"},{"bufferView":10,"componentType":5126,"count":140,"max":[0.9864004850387573,0.980586588382721,1.0],"min":[-0.9732136130332947,-0.9707278609275818,0.0],"type":"VEC3"},{"bufferView":11,"componentType":5126,"count":140,"max":[0.9305751919746399,0.9980079678352922],"min":[0.0018574356799945235,0.0019919872283935547],"type":"VEC2"},{"bufferView":12,"componentType":5123,"count":102,"max":[43],"min":[0],"type":"SCALAR"},{"bufferView":13,"componentType":5126,"count":44,"max":[11174.03125,11173.9375,1477.96875],"min":[-11174.03125,-11174.125,-1478.0],"type":"VEC3"},{"bufferView":14,"componentType":5126,"count":44,"max":[0.9776055812835693,0.9776061177253723,1.0],"min":[-0.9776055812835693,-0.9776049852371216,0.0],"type":"VEC3"},{"bufferView":15,"componentType":5126,"count":44,"max":[0.9980080127716064,0.998079439275898],"min":[0.0019920319318771362,0.03779911994934082],"type":"VEC2"},{"bufferView":16,"componentType":5123,"count":120,"max":[49],"min":[0],"type":"SCALAR"},{"bufferView":17,"componentType":5126,"count":50,"max":[4569.125,4454.5625,1462.9375],"min":[-4569.140625,-4454.625,-1462.90625],"type":"VEC3"},{"bufferView":18,"componentType":5126,"count":50,"max":[1.0,0.9749266505241394,1.0],"min":[-1.0,-0.9749266505241394,0.0],"type":"VEC3"},{"bufferView":19,"componentType":5126,"count":50,"max":[0.9145500063896179,0.9980079678352922],"min":[0.0018254491733387113,0.0019919872283935547],"type":"VEC2"},{"bufferView":20,"componentType":5123,"count":30,"max":[19],"min":[0],"type":"SCALAR"},{"bufferView":21,"componentType":5126,"count":20,"max":[12023.9052734375,12187.1875,1999.96875],"min":[-12023.904296875,-12187.09375,-2000.03125],"type":"VEC3"},{"bufferView":22,"componentType":5126,"count":20,"max":[0.9813601970672607,0.9808635711669922,1.0],"min":[-0.9814239144325256,-0.9825050234794617,0.0],"type":"VEC3"},{"bufferView":23,"componentType":5126,"count":20,"max":[0.9592571258544922,0.9980079678352922],"min":[0.0019146850099787116,0.0019919872283935547],"type":"VEC2"},{"bufferView":24,"componentType":5123,"count":30,"max":[19],"min":[0],"type":"SCALAR"},{"bufferView":25,"componentType":5126,"count":20,"max":[134.5,230.0,5231.875],"min":[-134.46875,-230.03125,-5231.9375],"type":"VEC3"},{"bufferView":26,"componentType":5126,"count":20,"max":[1.0,1.0,1.0],"min":[-0.9948806762695312,-0.9445571899414062,0.0],"type":"VEC3"},{"bufferView":27,"componentType":5126,"count":20,"max":[0.17979831993579865,0.9980079680681229],"min":[0.00035887889680452645,0.00199204683303833],"type":"VEC2"},{"bufferView":28,"componentType":5123,"count":66,"max":[45],"min":[0],"type":"SCALAR"},{"bufferView":29,"componentType":5126,"count":46,"max":[8459.775390625,8224.84375,1999.96875],"min":[-8459.7734375,-8224.8125,-2000.03125],"type":"VEC3"},{"bufferView":30,"componentType":5126,"count":46,"max":[0.9692584276199341,0.9753721356391907,1.0],"min":[-0.9762797355651855,-0.9737429022789001,0.0],"type":"VEC3"},{"bufferView":31,"componentType":5126,"count":46,"max":[0.9175901412963867,0.9980079678352922],"min":[0.0018315173219889402,0.0019919872283935547],"type":"VEC2"},{"bufferView":32,"componentType":5123,"count":156,"max":[96],"min":[0],"type":"SCALAR"},{"bufferView":33,"componentType":5126,"count":97,"max":[20572.875,18613.5625,1500.0],"min":[-20572.90625,-18613.5625,-5577.7822265625],"type":"VEC3"},{"bufferView":34,"componentType":5126,"count":97,"max":[0.7671900391578674,0.780863881111145,1.0],"min":[-0.7755589485168457,-0.7793740630149841,0.0],"type":"VEC3"},{"bufferView":35,"componentType":5126,"count":97,"max":[0.972152054309845,0.9980079680681229],"min":[0.0019404232734814286,0.0019919872283935547],"type":"VEC2"},{"bufferView":36,"componentType":5123,"count":204,"max":[87],"min":[0],"type":"SCALAR"},{"bufferView":37,"componentType":5126,"count":88,"max":[1959.21875,1959.21875,5458.90625],"min":[-1959.1875,-1959.1875,-5458.90625],"type":"VEC3"},{"bufferView":38,"componentType":5126,"count":88,"max":[1.0,1.0,1.0],"min":[-1.0,-1.0,-1.0],"type":"VEC3"},{"bufferView":39,"componentType":5126,"count":88,"max":[0.9361609816551208,0.9980079678352922],"min":[0.001868584891781211,0.0019919872283935547],"type":"VEC2"},{"bufferView":40,"componentType":5123,"count":30,"max":[19],"min":[0],"type":"SCALAR"},{"bufferView":41,"componentType":5126,"count":20,"max":[5847.9140625,5871.0,99.96875],"min":[-5847.9140625,-5871.03125,-100.03125],"type":"VEC3"},{"bufferView":42,"componentType":5126,"count":20,"max":[0.9637928009033203,0.9667280316352844,1.0],"min":[-0.9610382914543152,-0.9610241651535034,0.0],"type":"VEC3"},{"bufferView":43,"componentType":5126,"count":20,"max":[0.9980080127716064,0.9981808917364106],"min":[0.00199203216470778,0.08862680196762085],"type":"VEC2"},{"bufferView":44,"componentType":5123,"count":30,"max":[19],"min":[0],"type":"SCALAR"},{"bufferView":45,"componentType":5126,"count":20,"max":[3100.25,3248.25,2000.0],"min":[-3100.25,-3248.1875,-2000.0],"type":"VEC3"},{"bufferView":46,"componentType":5126,"count":20,"max":[0.7547093033790588,0.7547122836112976,1.0],"min":[-0.7547093033790588,-0.7547122836112976,0.0],"type":"VEC3"},{"bufferView":47,"componentType":5126,"count":20,"max":[0.9980080127716064,0.9980167339090258],"min":[0.0019920319318771362,0.006383776664733887],"type":"VEC2"},{"bufferView":48,"componentType":5123,"count":30,"max":[19],"min":[0],"type":"SCALAR"},{"bufferView":49,"componentType":5126,"count":20,"max":[4367.3125,4118.875,2197.15625],"min":[-4367.34375,-4118.78125,-2197.15625],"type":"VEC3"},{"bufferView":50,"componentType":5126,"count":20,"max":[0.7513956427574158,0.7513993382453918,1.0],"min":[-0.7624542117118835,-0.751399576663971,0.0],"type":"VEC3"},{"bufferView":51,"componentType":5126,"count":20,"max":[0.9980080127716064,0.9981421917909756],"min":[0.00199203216470778,0.06923818588256836],"type":"VEC2"},{"bufferView":52,"componentType":5123,"count":30,"max":[19],"min":[0],"type":"SCALAR"},{"bufferView":53,"componentType":5126,"count":20,"max":[134.46875,230.0,5231.875],"min":[-134.46875,-230.0,-5231.9375],"type":"VEC3"},{"bufferView":54,"componentType":5126,"count":20,"max":[0.994890570640564,0.9445479512214661,1.0],"min":[-1.0,-1.0,0.0],"type":"VEC3"},{"bufferView":55,"componentType":5126,"count":20,"max":[0.17979489266872406,0.9980079680681229],"min":[0.0003588720574043691,0.00199204683303833],"type":"VEC2"},{"bufferView":56,"componentType":5123,"count":24,"max":[15],"min":[0],"type":"SCALAR"},{"bufferView":57,"componentType":5126,"count":16,"max":[1825.875,1771.625,2000.0],"min":[-1825.84375,-1771.59375,-2000.0],"type":"VEC3"},{"bufferView":58,"componentType":5126,"count":16,"max":[0.7547116279602051,0.7547078728675842,1.0],"min":[-0.656061053276062,-0.7547129392623901,0.0],"type":"VEC3"},{"bufferView":59,"componentType":5126,"count":16,"max":[0.9056781530380249,0.9980079678352922],"min":[0.0018077410059049726,0.0019919872283935547],"type":"VEC2"},{"bufferView":60,"componentType":5123,"count":30,"max":[19],"min":[0],"type":"SCALAR"},{"bufferView":61,"componentType":5126,"count":20,"max":[16437.09375,15445.3125,5443.96875],"min":[-16437.09375,-15445.3125,-5443.96875],"type":"VEC3"},{"bufferView":62,"componentType":5126,"count":20,"max":[0.7572215795516968,0.7547092437744141,1.0],"min":[-0.7530242204666138,-0.754709780216217,0.0],"type":"VEC3"},{"bufferView":63,"componentType":5126,"count":20,"max":[0.9980080127716064,0.9981658548349515],"min":[0.0019920319318771362,0.08109331130981445],"type":"VEC2"},{"bufferView":64,"componentType":5123,"count":30,"max":[19],"min":[0],"type":"SCALAR"},{"bufferView":65,"componentType":5126,"count":20,"max":[230.0,134.53125,5231.875],"min":[-230.03125,-134.4375,-5231.9375],"type":"VEC3"},{"bufferView":66,"componentType":5126,"count":20,"max":[0.9445225596427917,1.0,1.0],"min":[-1.0,-0.994883120059967,0.0],"type":"VEC3"},{"bufferView":67,"componentType":5126,"count":20,"max":[0.17979800701141357,0.9980079680681229],"min":[0.00035887828562408686,0.00199204683303833],"type":"VEC2"},{"bufferView":68,"componentType":5123,"count":30,"max":[19],"min":[0],"type":"SCALAR"},{"bufferView":69,"componentType":5126,"count":20,"max":[230.0,134.5,5231.875],"min":[-230.03125,-134.4375,-5231.9375],"type":"VEC3"},{"bufferView":70,"componentType":5126,"count":20,"max":[1.0,0.9948826432228088,1.0],"min":[-0.9445106983184814,-1.0,0.0],"type":"VEC3"},{"bufferView":71,"componentType":5126,"count":20,"max":[0.1797950565814972,0.9980079680681229],"min":[0.00035887237754650414,0.00199204683303833],"type":"VEC2"},{"bufferView":72,"componentType":5123,"count":24,"max":[15],"min":[0],"type":"SCALAR"},{"bufferView":73,"componentType":5126,"count":16,"max":[2304.8125,2280.15625,2000.0],"min":[-2304.84375,-2280.1875,-2000.0],"type":"VEC3"},{"bufferView":74,"componentType":5126,"count":16,"max":[0.7547169327735901,0.6560506224632263,1.0],"min":[-0.7547122836112976,-0.75471031665802,0.0],"type":"VEC3"},{"bufferView":75,"componentType":5126,"count":16,"max":[0.9138882756233215,0.9980079680681229],"min":[0.0018241283250972629,0.0019919872283935547],"type":"VEC2"},{"bufferView":76,"componentType":5123,"count":30,"max":[19],"min":[0],"type":"SCALAR"},{"bufferView":77,"componentType":5126,"count":20,"max":[5563.76171875,3637.625,1999.96875],"min":[-5563.76171875,-3637.625,-2000.03125],"type":"VEC3"},{"bufferView":78,"componentType":5126,"count":20,"max":[0.9729950428009033,0.9729950428009033,1.0],"min":[-0.9729952812194824,-0.9729949831962585,0.0],"type":"VEC3"},{"bufferView":79,"componentType":5126,"count":20,"max":[0.9980080723762512,0.9981244186637923],"min":[0.00199203216470778,0.06033378839492798],"type":"VEC2"},{"bufferView":80,"componentType":5123,"count":102,"max":[43],"min":[0],"type":"SCALAR"},{"bufferView":81,"componentType":5126,"count":44,"max":[11174.015625,11174.0625,1477.96875],"min":[-11174.046875,-11174.0,-1478.0],"type":"VEC3"},{"bufferView":82,"componentType":5126,"count":44,"max":[0.9776055812835693,0.9776061177253723,1.0],"min":[-0.9776055812835693,-0.9776049852371216,0.0],"type":"VEC3"},{"bufferView":83,"componentType":5126,"count":44,"max":[0.9980080127716064,0.998079439275898],"min":[0.0019920319318771362,0.03779911994934082],"type":"VEC2"},{"bufferView":84,"componentType":5123,"count":120,"max":[49],"min":[0],"type":"SCALAR"},{"bufferView":85,"componentType":5126,"count":50,"max":[4569.125,4454.5625,1462.9375],"min":[-4569.140625,-4454.625,-1462.90625],"type":"VEC3"},{"bufferView":86,"componentType":5126,"count":50,"max":[1.0,0.9749266505241394,1.0],"min":[-1.0,-0.9749266505241394,0.0],"type":"VEC3"},{"bufferView":87,"componentType":5126,"count":50,"max":[0.9145500063896179,0.9980079678352922],"min":[0.0018254491733387113,0.0019919872283935547],"type":"VEC2"},{"bufferView":88,"componentType":5123,"count":48,"max":[32],"min":[0],"type":"SCALAR"},{"bufferView":89,"componentType":5126,"count":33,"max":[7104.6318359375,-1144.02587890625,990.796875],"min":[481.5751953125,-18555.4375,-1197.5625],"type":"VEC3"},{"bufferView":90,"componentType":5126,"count":33,"max":[1.0,0.3070174753665924,1.0],"min":[-1.0,-1.0,-1.0],"type":"VEC3"},{"bufferView":91,"componentType":5126,"count":33,"max":[0.9980079531669617,0.9983024433022365],"min":[0.0019920319318771362,0.14952421188354492],"type":"VEC2"},{"bufferView":92,"componentType":5123,"count":36,"max":[23],"min":[0],"type":"SCALAR"},{"bufferView":93,"componentType":5126,"count":24,"max":[1112.479248046875,-4839.677734375,1631.1212158203125],"min":[652.7822875976562,-11030.673828125,1169.512939453125],"type":"VEC3"},{"bufferView":94,"componentType":5126,"count":24,"max":[0.9999999403953552,1.0,1.0],"min":[-0.9999999403953552,-1.0,-1.0],"type":"VEC3"},{"bufferView":95,"componentType":5126,"count":24,"max":[0.47747454047203064,0.9980079678352922],"min":[0.0009530429961159825,0.0019919872283935547],"type":"VEC2"},{"bufferView":96,"componentType":5123,"count":36,"max":[23],"min":[0],"type":"SCALAR"},{"bufferView":97,"componentType":5126,"count":24,"max":[1112.479248046875,-4839.677734375,3223.143798828125],"min":[915.58203125,-9184.083984375,1169.512939453125],"type":"VEC3"},{"bufferView":98,"componentType":5126,"count":24,"max":[0.9999999403953552,1.0,1.0],"min":[-0.9999999403953552,-1.0,-0.9999999403953552],"type":"VEC3"},{"bufferView":99,"componentType":5126,"count":24,"max":[0.9980079531669617,0.9982244272250682],"min":[0.00199203216470778,0.11043810844421387],"type":"VEC2"},{"bufferView":100,"componentType":5123,"count":36,"max":[23],"min":[0],"type":"SCALAR"},{"bufferView":101,"componentType":5126,"count":24,"max":[1254.9632568359375,-4839.677734375,1388.548583984375],"min":[1025.2716064453125,-17306.51953125,1169.512939453125],"type":"VEC3"},{"bufferView":102,"componentType":5126,"count":24,"max":[1.0,1.0,1.0],"min":[-1.0,-1.0,-1.0],"type":"VEC3"},{"bufferView":103,"componentType":5126,"count":24,"max":[0.13836857676506042,0.9980079678352922],"min":[0.00027618484455160797,0.0019919872283935547],"type":"VEC2"},{"bufferView":104,"componentType":5123,"count":36,"max":[23],"min":[0],"type":"SCALAR"},{"bufferView":105,"componentType":5126,"count":24,"max":[2234.86279296875,-4839.677734375,1300.3765869140625],"min":[1025.2716064453125,-9177.8955078125,1169.512939453125],"type":"VEC3"},{"bufferView":106,"componentType":5126,"count":24,"max":[1.0,1.0,1.0],"min":[-1.0,-1.0,-1.0],"type":"VEC3"},{"bufferView":107,"componentType":5126,"count":24,"max":[0.7097486257553101,0.9980079678352922],"min":[0.0014166641049087048,0.0019919872283935547],"type":"VEC2"},{"bufferView":108,"componentType":5123,"count":36,"max":[23],"min":[0],"type":"SCALAR"},{"bufferView":109,"componentType":5126,"count":24,"max":[1637.1700439453125,-8179.31298828125,1133.3671875],"min":[1173.248046875,-14372.1279296875,673.9763793945312],"type":"VEC3"},{"bufferView":110,"componentType":5126,"count":24,"max":[1.0,1.0,1.0],"min":[-1.0,-1.0,-1.0],"type":"VEC3"},{"bufferView":111,"componentType":5126,"count":24,"max":[0.4774523675441742,0.9980079680681229],"min":[0.0009529987582936883,0.0019919872283935547],"type":"VEC2"},{"bufferView":112,"componentType":5123,"count":1080,"max":[527],"min":[0],"type":"SCALAR"},{"bufferView":113,"componentType":5126,"count":528,"max":[-11058.25,40403.203125,45831.7890625],"min":[-26936.294921875,36919.32421875,35726.81640625],"type":"VEC3"},{"bufferView":114,"componentType":5126,"count":528,"max":[0.9154510498046875,1.0,0.9996143579483032],"min":[-0.8581957221031189,-1.0,-0.8459704518318176],"type":"VEC3"},{"bufferView":115,"componentType":5126,"count":528,"max":[1.1269190311431885,1.0020933754276484],"min":[-0.12570339441299438,-0.021793842315673828],"type":"VEC2"},{"bufferView":116,"componentType":5123,"count":1728,"max":[832],"min":[0],"type":"SCALAR"},{"bufferView":117,"componentType":5126,"count":833,"max":[-7693.11767578125,41133.39453125,52082.34375],"min":[-19335.740234375,36910.69140625,36864.984375],"type":"VEC3"},{"bufferView":118,"componentType":5126,"count":833,"max":[0.9946761727333069,1.0,0.9600431323051453],"min":[-0.9947395324707031,-1.0,-0.9986317753791809],"type":"VEC3"},{"bufferView":119,"componentType":5126,"count":833,"max":[1.0670340061187744,1.0000735721478122],"min":[-0.019553614780306816,-0.031067490577697754],"type":"VEC2"},{"bufferView":120,"componentType":5123,"count":34566,"max":[5918],"min":[0],"type":"SCALAR"},{"bufferView":121,"componentType":5126,"count":5919,"max":[61801.5390625,61100.3515625,-7540.33984375],"min":[-61801.5703125,-61100.3203125,-31435.3125],"type":"VEC3"},{"bufferView":122,"componentType":5126,"count":5919,"max":[0.7612122893333435,0.5677376389503479,1.0],"min":[-0.6714027523994446,-0.5837730765342712,0.6424536108970642],"type":"VEC3"},{"bufferView":123,"componentType":5126,"count":5919,"max":[1.0,0.9999999701976776],"min":[2.9802322387695312e-08,0.0],"type":"VEC2"},{"bufferView":124,"componentType":5123,"count":1824,"max":[1215],"min":[0],"type":"SCALAR"},{"bufferView":125,"componentType":5126,"count":1216,"max":[61801.5390625,61100.3515625,-7540.33984375],"min":[-61801.5703125,-61100.3203125,-66901.2734375],"type":"VEC3"},{"bufferView":126,"componentType":5126,"count":1216,"max":[1.0,1.0,0.0],"min":[-1.0,-1.0,0.0],"type":"VEC3"},{"bufferView":127,"componentType":5126,"count":1216,"max":[1.0,1.0],"min":[0.0,0.0],"type":"VEC2"},{"bufferView":128,"componentType":5123,"count":648,"max":[425],"min":[0],"type":"SCALAR"},{"bufferView":129,"componentType":5126,"count":426,"max":[-24566.1875,39647.8984375,46834.2265625],"min":[-29074.900390625,36919.32421875,42789.234375],"type":"VEC3"},{"bufferView":130,"componentType":5126,"count":426,"max":[0.75501948595047,1.0,0.7550650835037231],"min":[-0.755033552646637,-1.0,-0.7550212740898132],"type":"VEC3"},{"bufferView":131,"componentType":5126,"count":426,"max":[1.0000004768371582,1.0],"min":[-0.0,-5.125999450683594e-06],"type":"VEC2"},{"bufferView":132,"componentType":5123,"count":21186,"max":[13530],"min":[0],"type":"SCALAR"},{"bufferView":133,"componentType":5126,"count":13531,"max":[-8360.90234375,41427.0625,51636.6015625],"min":[-18948.5703125,38305.015625,37624.37109375],"type":"VEC3"},{"bufferView":134,"componentType":5126,"count":13531,"max":[0.9776613712310791,1.0,0.9834660887718201],"min":[-0.9983704686164856,-1.0,-0.9964126348495483],"type":"VEC3"},{"bufferView":135,"componentType":5126,"count":13531,"max":[0.9390541911125183,0.9980079678352922],"min":[0.001874359673820436,0.001991868019104004],"type":"VEC2"},{"bufferView":136,"componentType":5123,"count":8064,"max":[5146],"min":[0],"type":"SCALAR"},{"bufferView":137,"componentType":5126,"count":5147,"max":[-25045.125,39410.96484375,46572.58203125],"min":[-28952.09375,37850.48828125,42888.70703125],"type":"VEC3"},{"bufferView":138,"componentType":5126,"count":5147,"max":[0.9986492395401001,1.0,0.9975624084472656],"min":[-0.9983679056167603,-1.0,-0.999985933303833],"type":"VEC3"},{"bufferView":139,"componentType":5126,"count":5147,"max":[0.94920814037323,0.9980079680681229],"min":[0.001894627115689218,0.0019919276237487793],"type":"VEC2"},{"bufferView":140,"componentType":5123,"count":13344,"max":[8308],"min":[0],"type":"SCALAR"},{"bufferView":141,"componentType":5126,"count":8309,"max":[-21554.67578125,41688.59765625,43999.0625],"min":[-31898.84765625,37831.62109375,33910.8203125],"type":"VEC3"},{"bufferView":142,"componentType":5126,"count":8309,"max":[0.9999997615814209,1.0,0.9996437430381775],"min":[-0.9999940395355225,-1.0,-0.9996423125267029],"type":"VEC3"},{"bufferView":143,"componentType":5126,"count":8309,"max":[0.9908791184425354,0.9980079678352922],"min":[0.0019778027199208736,0.00199204683303833],"type":"VEC2"},{"bufferView":144,"componentType":5123,"count":19062,"max":[12727],"min":[0],"type":"SCALAR"},{"bufferView":145,"componentType":5126,"count":12728,"max":[-10490.3525390625,40205.47265625,46528.84765625],"min":[-26586.12890625,37775.0625,36445.1171875],"type":"VEC3"},{"bufferView":146,"componentType":5126,"count":12728,"max":[0.949309766292572,1.0,0.9809905886650085],"min":[-0.9857593774795532,-1.0,-0.9801419973373413],"type":"VEC3"},{"bufferView":147,"componentType":5126,"count":12728,"max":[0.9864252209663391,0.9951171875],"min":[0.004882782697677612,0.0048828125],"type":"VEC2"},{"bufferView":148,"componentType":5123,"count":468,"max":[311],"min":[0],"type":"SCALAR"},{"bufferView":149,"componentType":5126,"count":312,"max":[-28793.431640625,38498.5703125,44953.10546875],"min":[-29925.703125,37928.44140625,43786.5234375],"type":"VEC3"},{"bufferView":150,"componentType":5126,"count":312,"max":[0.7548484802246094,1.0,0.7547940015792847],"min":[-0.7547503113746643,-1.0,-0.7547742128372192],"type":"VEC3"},{"bufferView":151,"componentType":5126,"count":312,"max":[0.9980080127716064,0.9981848379829898],"min":[0.0019920319318771362,0.09060382843017578],"type":"VEC2"},{"bufferView":152,"componentType":5123,"count":3108,"max":[1773],"min":[0],"type":"SCALAR"},{"bufferView":153,"componentType":5126,"count":1774,"max":[-28194.51953125,38983.97265625,32298.107421875],"min":[-36495.046875,37800.84375,27075.673828125],"type":"VEC3"},{"bufferView":154,"componentType":5126,"count":1774,"max":[0.995583713054657,1.0,0.9759079217910767],"min":[-0.99558025598526,-1.0,-0.9759788513183594],"type":"VEC3"},{"bufferView":155,"componentType":5126,"count":1774,"max":[0.9293561577796936,0.9980079678352922],"min":[0.0018550024833530188,0.0019919872283935547],"type":"VEC2"},{"bufferView":156,"componentType":5123,"count":5172,"max":[3322],"min":[0],"type":"SCALAR"},{"bufferView":157,"componentType":5126,"count":3323,"max":[-21898.7109375,40507.984375,30205.7421875],"min":[-27855.451171875,39201.82421875,25542.677734375],"type":"VEC3"},{"bufferView":158,"componentType":5126,"count":3323,"max":[0.9999639391899109,1.0,0.9999625086784363],"min":[-0.9999639391899109,-1.0,-0.9999642372131348],"type":"VEC3"},{"bufferView":159,"componentType":5126,"count":3323,"max":[0.9389740228652954,0.9980079680681229],"min":[0.0018741997191682458,0.00199204683303833],"type":"VEC2"},{"bufferView":160,"componentType":5123,"count":1584,"max":[1065],"min":[0],"type":"SCALAR"},{"bufferView":161,"componentType":5126,"count":1066,"max":[-19956.10546875,38162.4375,80441.203125],"min":[-29124.880859375,36629.16796875,68881.828125],"type":"VEC3"},{"bufferView":162,"componentType":5126,"count":1066,"max":[0.739386796951294,1.0,0.7312824726104736],"min":[-0.731258749961853,-1.0,-0.9464741349220276],"type":"VEC3"},{"bufferView":163,"componentType":5126,"count":1066,"max":[0.9980080723762512,0.9985684802522883],"min":[0.00199203216470778,0.28280872106552124],"type":"VEC2"},{"bufferView":164,"componentType":5123,"count":132,"max":[91],"min":[0],"type":"SCALAR"},{"bufferView":165,"componentType":5126,"count":92,"max":[-17538.3984375,38553.76953125,69276.953125],"min":[-22502.72265625,36986.5703125,63169.99609375],"type":"VEC3"},{"bufferView":166,"componentType":5126,"count":92,"max":[0.7465934753417969,1.0,0.7465977072715759],"min":[-0.7465952634811401,-1.0,-0.7466027736663818],"type":"VEC3"},{"bufferView":167,"componentType":5126,"count":92,"max":[0.966326892375946,0.9980079680681229],"min":[0.0019287964096292853,0.0019919872283935547],"type":"VEC2"},{"bufferView":168,"componentType":5123,"count":8046,"max":[5265],"min":[0],"type":"SCALAR"},{"bufferView":169,"componentType":5126,"count":5266,"max":[-17882.33984375,38779.37890625,58028.2734375],"min":[-21657.078125,36981.8203125,53948.5078125],"type":"VEC3"},{"bufferView":170,"componentType":5126,"count":5266,"max":[0.9980621933937073,1.0,0.9999540448188782],"min":[-0.9978644251823425,-1.0,-0.9993478059768677],"type":"VEC3"},{"bufferView":171,"componentType":5126,"count":5266,"max":[0.9897866249084473,0.9980079680681229],"min":[0.001975622260943055,0.00199204683303833],"type":"VEC2"},{"bufferView":172,"componentType":5123,"count":1050,"max":[691],"min":[0],"type":"SCALAR"},{"bufferView":173,"componentType":5126,"count":692,"max":[-21952.7265625,39160.65234375,47368.96875],"min":[-29315.830078125,37805.5,41318.2265625],"type":"VEC3"},{"bufferView":174,"componentType":5126,"count":692,"max":[0.9988500475883484,1.0,0.9971635341644287],"min":[-0.9975641369819641,-1.0,-0.9979342222213745],"type":"VEC3"},{"bufferView":175,"componentType":5126,"count":692,"max":[0.9980080127716064,0.9981288984417915],"min":[0.00199203216470778,0.06257820129394531],"type":"VEC2"},{"bufferView":176,"componentType":5123,"count":600,"max":[399],"min":[0],"type":"SCALAR"},{"bufferView":177,"componentType":5126,"count":400,"max":[-24691.27734375,38427.71484375,46927.24609375],"min":[-26165.74609375,37852.0,45592.75],"type":"VEC3"},{"bufferView":178,"componentType":5126,"count":400,"max":[0.7564680576324463,1.0,0.7598087787628174],"min":[-0.7559456825256348,-1.0,-0.75474613904953],"type":"VEC3"},{"bufferView":179,"componentType":5126,"count":400,"max":[0.9980080127716064,0.998180647729896],"min":[0.0019920319318771362,0.08850455284118652],"type":"VEC2"},{"bufferView":180,"componentType":5123,"count":858,"max":[571],"min":[0],"type":"SCALAR"},{"bufferView":181,"componentType":5126,"count":572,"max":[-19353.91015625,38941.359375,48650.28515625],"min":[-24905.015625,37428.125,45328.8203125],"type":"VEC3"},{"bufferView":182,"componentType":5126,"count":572,"max":[0.7771998047828674,1.0,0.7547630667686462],"min":[-0.7771998047828674,-1.0,-0.7547819018363953],"type":"VEC3"},{"bufferView":183,"componentType":5126,"count":572,"max":[0.9363546967506409,0.9980079680681229],"min":[0.00186897162348032,0.00199204683303833],"type":"VEC2"},{"bufferView":184,"componentType":5123,"count":252,"max":[167],"min":[0],"type":"SCALAR"},{"bufferView":185,"componentType":5126,"count":168,"max":[-18970.248046875,38837.53515625,50806.77734375],"min":[-20100.59765625,37675.8046875,48403.359375],"type":"VEC3"},{"bufferView":186,"componentType":5126,"count":168,"max":[0.9169395565986633,1.0,0.9200955033302307],"min":[-0.9169352054595947,-1.0,-0.9200840592384338],"type":"VEC3"},{"bufferView":187,"componentType":5126,"count":168,"max":[0.9974794387817383,0.9980079678352922],"min":[0.0019909769762307405,0.0019919872283935547],"type":"VEC2"},{"bufferView":188,"componentType":5123,"count":204,"max":[135],"min":[0],"type":"SCALAR"},{"bufferView":189,"componentType":5126,"count":136,"max":[-19814.978515625,38688.984375,49772.4765625],"min":[-21522.955078125,37442.0,48273.91015625],"type":"VEC3"},{"bufferView":190,"componentType":5126,"count":136,"max":[0.7599506378173828,1.0,0.7547449469566345],"min":[-0.759965181350708,-1.0,-0.7547939419746399],"type":"VEC3"},{"bufferView":191,"componentType":5126,"count":136,"max":[0.9817695021629333,0.9980079680681229],"min":[0.0019596198108047247,0.0019919872283935547],"type":"VEC2"},{"bufferView":192,"componentType":5123,"count":648,"max":[398],"min":[0],"type":"SCALAR"},{"bufferView":193,"componentType":5126,"count":399,"max":[6056.08984375,3542.296875,3152.3603515625],"min":[-3958.08203125,-1392.55859375,-3089.5283203125],"type":"VEC3"},{"bufferView":194,"componentType":5126,"count":399,"max":[1.0,1.0,1.0],"min":[-1.0,-1.0,-1.0],"type":"VEC3"},{"bufferView":195,"componentType":5126,"count":399,"max":[1.0000091791152954,1.0000009684989664],"min":[-4.4573795321412035e-08,-6.556510925292969e-05],"type":"VEC2"},{"bufferView":196,"componentType":5123,"count":432,"max":[191],"min":[0],"type":"SCALAR"},{"bufferView":197,"componentType":5126,"count":192,"max":[1495.94921875,604.10546875,1481.583984375],"min":[-2183.38671875,-1408.078125,-1481.6171875],"type":"VEC3"},{"bufferView":198,"componentType":5126,"count":192,"max":[1.0,1.0,1.0],"min":[-1.0,-1.0,-1.0],"type":"VEC3"},{"bufferView":199,"componentType":5126,"count":192,"max":[1.0,1.0],"min":[0.0,0.0],"type":"VEC2"},{"bufferView":200,"componentType":5123,"count":648,"max":[299],"min":[0],"type":"SCALAR"},{"bufferView":201,"componentType":5126,"count":300,"max":[701.0,604.10546875,1088.732421875],"min":[-2179.953125,-1408.078125,-1321.302734375],"type":"VEC3"},{"bufferView":202,"componentType":5126,"count":300,"max":[1.0,1.0,1.0],"min":[-1.0,-1.0,-1.0],"type":"VEC3"},{"bufferView":203,"componentType":5126,"count":300,"max":[1.0000014305114746,1.0000021103985546],"min":[-0.0,-2.384185791015625e-07],"type":"VEC2"},{"bufferView":204,"componentType":5123,"count":648,"max":[428],"min":[0],"type":"SCALAR"},{"bufferView":205,"componentType":5126,"count":429,"max":[372.03515625,604.10546875,1088.7421875],"min":[-2179.953125,-1408.078125,-1844.03515625],"type":"VEC3"},{"bufferView":206,"componentType":5126,"count":429,"max":[1.0,1.0,1.0],"min":[-1.0,-1.0,-1.0],"type":"VEC3"},{"bufferView":207,"componentType":5126,"count":429,"max":[1.0,1.0],"min":[-3.0813336326929175e-09,-1.1920928955078125e-07],"type":"VEC2"},{"bufferView":208,"componentType":5123,"count":5610,"max":[3432],"min":[0],"type":"SCALAR"},{"bufferView":209,"componentType":5126,"count":3433,"max":[-19756.2578125,38744.79296875,52235.55859375],"min":[-22745.55078125,37420.5,49168.5078125],"type":"VEC3"},{"bufferView":210,"componentType":5126,"count":3433,"max":[0.9998447895050049,1.0,0.9999673366546631],"min":[-0.9998449087142944,-1.0,-0.9999678730964661],"type":"VEC3"},{"bufferView":211,"componentType":5126,"count":3433,"max":[0.9580497145652771,0.9980079678352922],"min":[0.0019122749799862504,0.0019919872283935547],"type":"VEC2"},{"bufferView":212,"componentType":5123,"count":3228,"max":[1972],"min":[0],"type":"SCALAR"},{"bufferView":213,"componentType":5126,"count":1973,"max":[-21242.134765625,38871.51953125,49363.61328125],"min":[-24081.203125,37417.79296875,46236.65625],"type":"VEC3"},{"bufferView":214,"componentType":5126,"count":1973,"max":[0.9979281425476074,1.0,0.9979305267333984],"min":[-0.9979285597801208,-1.0,-0.9980341792106628],"type":"VEC3"},{"bufferView":215,"componentType":5126,"count":1973,"max":[0.9705225229263306,0.9980079678352922],"min":[0.0019371707458049059,0.0019919276237487793],"type":"VEC2"},{"bufferView":216,"componentType":5123,"count":192,"max":[121],"min":[0],"type":"SCALAR"},{"bufferView":217,"componentType":5126,"count":122,"max":[-22057.638671875,39761.4140625,52741.28125],"min":[-28242.978515625,37374.3984375,47085.265625],"type":"VEC3"},{"bufferView":218,"componentType":5126,"count":122,"max":[0.7489585876464844,1.0,0.748955488204956],"min":[-0.7489585876464844,-2.0727106857520994e-06,-0.748955488204956],"type":"VEC3"},{"bufferView":219,"componentType":5126,"count":122,"max":[0.9471990466117859,0.9980079678352922],"min":[0.0018906168406829238,0.0019919276237487793],"type":"VEC2"},{"bufferView":220,"componentType":5123,"count":1200,"max":[773],"min":[0],"type":"SCALAR"},{"bufferView":221,"componentType":5126,"count":774,"max":[-26694.92578125,38671.78125,51185.40625],"min":[-28292.388671875,37742.671875,49578.78515625],"type":"VEC3"},{"bufferView":222,"componentType":5126,"count":774,"max":[0.9958242774009705,1.0,0.9752994179725647],"min":[-0.995826005935669,-1.0,-0.9752846360206604],"type":"VEC3"},{"bufferView":223,"componentType":5126,"count":774,"max":[0.9673362374305725,0.9980079678352922],"min":[0.0019308110931888223,0.0019919872283935547],"type":"VEC2"},{"bufferView":224,"componentType":5123,"count":600,"max":[399],"min":[0],"type":"SCALAR"},{"bufferView":225,"componentType":5126,"count":400,"max":[-27717.775390625,38376.84765625,49159.99609375],"min":[-29192.2265625,37735.625,47830.2578125],"type":"VEC3"},{"bufferView":226,"componentType":5126,"count":400,"max":[0.7559457421302795,1.0,0.7547764778137207],"min":[-0.7564681172370911,-1.0,-0.7598088383674622],"type":"VEC3"},{"bufferView":227,"componentType":5126,"count":400,"max":[0.9908925890922546,0.9980079678352922],"min":[0.0019778297282755375,0.0019919872283935547],"type":"VEC2"},{"bufferView":228,"componentType":5123,"count":144,"max":[101],"min":[0],"type":"SCALAR"},{"bufferView":229,"componentType":5126,"count":102,"max":[-36682.25390625,37621.671875,53563.2578125],"min":[-41262.7421875,37152.26953125,48425.4375],"type":"VEC3"},{"bufferView":230,"componentType":5126,"count":102,"max":[0.8190804123878479,0.9496762752532959,0.8190888166427612],"min":[-0.8190804123878479,-1.0,-0.8190850615501404],"type":"VEC3"},{"bufferView":231,"componentType":5126,"count":102,"max":[0.9167148470878601,0.9980079678352922],"min":[0.0018297702772542834,0.0019919276237487793],"type":"VEC2"}],"asset":{"copyright":null,"generator":"Verge3D for Maya v4.6.0","version":"2.0"},"bufferViews":[{"buffer":0,"byteLength":204,"byteOffset":0,"target":34963},{"buffer":0,"byteLength":528,"byteOffset":204,"target":34962},{"buffer":0,"byteLength":528,"byteOffset":732,"target":34962},{"buffer":0,"byteLength":352,"byteOffset":1260,"target":34962},{"buffer":0,"byteLength":204,"byteOffset":1612,"target":34963},{"buffer":0,"byteLength":528,"byteOffset":1816,"target":34962},{"buffer":0,"byteLength":528,"byteOffset":2344,"target":34962},{"buffer":0,"byteLength":352,"byteOffset":2872,"target":34962},{"buffer":0,"byteLength":456,"byteOffset":3224,"target":34963},{"buffer":0,"byteLength":1680,"byteOffset":3680,"target":34962},{"buffer":0,"byteLength":1680,"byteOffset":5360,"target":34962},{"buffer":0,"byteLength":1120,"byteOffset":7040,"target":34962},{"buffer":0,"byteLength":204,"byteOffset":8160,"target":34963},{"buffer":0,"byteLength":528,"byteOffset":8364,"target":34962},{"buffer":0,"byteLength":528,"byteOffset":8892,"target":34962},{"buffer":0,"byteLength":352,"byteOffset":9420,"target":34962},{"buffer":0,"byteLength":240,"byteOffset":9772,"target":34963},{"buffer":0,"byteLength":600,"byteOffset":10012,"target":34962},{"buffer":0,"byteLength":600,"byteOffset":10612,"target":34962},{"buffer":0,"byteLength":400,"byteOffset":11212,"target":34962},{"buffer":0,"byteLength":60,"byteOffset":11612,"target":34963},{"buffer":0,"byteLength":240,"byteOffset":11672,"target":34962},{"buffer":0,"byteLength":240,"byteOffset":11912,"target":34962},{"buffer":0,"byteLength":160,"byteOffset":12152,"target":34962},{"buffer":0,"byteLength":60,"byteOffset":12312,"target":34963},{"buffer":0,"byteLength":240,"byteOffset":12372,"target":34962},{"buffer":0,"byteLength":240,"byteOffset":12612,"target":34962},{"buffer":0,"byteLength":160,"byteOffset":12852,"target":34962},{"buffer":0,"byteLength":132,"byteOffset":13012,"target":34963},{"buffer":0,"byteLength":552,"byteOffset":13144,"target":34962},{"buffer":0,"byteLength":552,"byteOffset":13696,"target":34962},{"buffer":0,"byteLength":368,"byteOffset":14248,"target":34962},{"buffer":0,"byteLength":312,"byteOffset":14616,"target":34963},{"buffer":0,"byteLength":1164,"byteOffset":14928,"target":34962},{"buffer":0,"byteLength":1164,"byteOffset":16092,"target":34962},{"buffer":0,"byteLength":776,"byteOffset":17256,"target":34962},{"buffer":0,"byteLength":408,"byteOffset":18032,"target":34963},{"buffer":0,"byteLength":1056,"byteOffset":18440,"target":34962},{"buffer":0,"byteLength":1056,"byteOffset":19496,"target":34962},{"buffer":0,"byteLength":704,"byteOffset":20552,"target":34962},{"buffer":0,"byteLength":60,"byteOffset":21256,"target":34963},{"buffer":0,"byteLength":240,"byteOffset":21316,"target":34962},{"buffer":0,"byteLength":240,"byteOffset":21556,"target":34962},{"buffer":0,"byteLength":160,"byteOffset":21796,"target":34962},{"buffer":0,"byteLength":60,"byteOffset":21956,"target":34963},{"buffer":0,"byteLength":240,"byteOffset":22016,"target":34962},{"buffer":0,"byteLength":240,"byteOffset":22256,"target":34962},{"buffer":0,"byteLength":160,"byteOffset":22496,"target":34962},{"buffer":0,"byteLength":60,"byteOffset":22656,"target":34963},{"buffer":0,"byteLength":240,"byteOffset":22716,"target":34962},{"buffer":0,"byteLength":240,"byteOffset":22956,"target":34962},{"buffer":0,"byteLength":160,"byteOffset":23196,"target":34962},{"buffer":0,"byteLength":60,"byteOffset":23356,"target":34963},{"buffer":0,"byteLength":240,"byteOffset":23416,"target":34962},{"buffer":0,"byteLength":240,"byteOffset":23656,"target":34962},{"buffer":0,"byteLength":160,"byteOffset":23896,"target":34962},{"buffer":0,"byteLength":48,"byteOffset":24056,"target":34963},{"buffer":0,"byteLength":192,"byteOffset":24104,"target":34962},{"buffer":0,"byteLength":192,"byteOffset":24296,"target":34962},{"buffer":0,"byteLength":128,"byteOffset":24488,"target":34962},{"buffer":0,"byteLength":60,"byteOffset":24616,"target":34963},{"buffer":0,"byteLength":240,"byteOffset":24676,"target":34962},{"buffer":0,"byteLength":240,"byteOffset":24916,"target":34962},{"buffer":0,"byteLength":160,"byteOffset":25156,"target":34962},{"buffer":0,"byteLength":60,"byteOffset":25316,"target":34963},{"buffer":0,"byteLength":240,"byteOffset":25376,"target":34962},{"buffer":0,"byteLength":240,"byteOffset":25616,"target":34962},{"buffer":0,"byteLength":160,"byteOffset":25856,"target":34962},{"buffer":0,"byteLength":60,"byteOffset":26016,"target":34963},{"buffer":0,"byteLength":240,"byteOffset":26076,"target":34962},{"buffer":0,"byteLength":240,"byteOffset":26316,"target":34962},{"buffer":0,"byteLength":160,"byteOffset":26556,"target":34962},{"buffer":0,"byteLength":48,"byteOffset":26716,"target":34963},{"buffer":0,"byteLength":192,"byteOffset":26764,"target":34962},{"buffer":0,"byteLength":192,"byteOffset":26956,"target":34962},{"buffer":0,"byteLength":128,"byteOffset":27148,"target":34962},{"buffer":0,"byteLength":60,"byteOffset":27276,"target":34963},{"buffer":0,"byteLength":240,"byteOffset":27336,"target":34962},{"buffer":0,"byteLength":240,"byteOffset":27576,"target":34962},{"buffer":0,"byteLength":160,"byteOffset":27816,"target":34962},{"buffer":0,"byteLength":204,"byteOffset":27976,"target":34963},{"buffer":0,"byteLength":528,"byteOffset":28180,"target":34962},{"buffer":0,"byteLength":528,"byteOffset":28708,"target":34962},{"buffer":0,"byteLength":352,"byteOffset":29236,"target":34962},{"buffer":0,"byteLength":240,"byteOffset":29588,"target":34963},{"buffer":0,"byteLength":600,"byteOffset":29828,"target":34962},{"buffer":0,"byteLength":600,"byteOffset":30428,"target":34962},{"buffer":0,"byteLength":400,"byteOffset":31028,"target":34962},{"buffer":0,"byteLength":96,"byteOffset":31428,"target":34963},{"buffer":0,"byteLength":396,"byteOffset":31524,"target":34962},{"buffer":0,"byteLength":396,"byteOffset":31920,"target":34962},{"buffer":0,"byteLength":264,"byteOffset":32316,"target":34962},{"buffer":0,"byteLength":72,"byteOffset":32580,"target":34963},{"buffer":0,"byteLength":288,"byteOffset":32652,"target":34962},{"buffer":0,"byteLength":288,"byteOffset":32940,"target":34962},{"buffer":0,"byteLength":192,"byteOffset":33228,"target":34962},{"buffer":0,"byteLength":72,"byteOffset":33420,"target":34963},{"buffer":0,"byteLength":288,"byteOffset":33492,"target":34962},{"buffer":0,"byteLength":288,"byteOffset":33780,"target":34962},{"buffer":0,"byteLength":192,"byteOffset":34068,"target":34962},{"buffer":0,"byteLength":72,"byteOffset":34260,"target":34963},{"buffer":0,"byteLength":288,"byteOffset":34332,"target":34962},{"buffer":0,"byteLength":288,"byteOffset":34620,"target":34962},{"buffer":0,"byteLength":192,"byteOffset":34908,"target":34962},{"buffer":0,"byteLength":72,"byteOffset":35100,"target":34963},{"buffer":0,"byteLength":288,"byteOffset":35172,"target":34962},{"buffer":0,"byteLength":288,"byteOffset":35460,"target":34962},{"buffer":0,"byteLength":192,"byteOffset":35748,"target":34962},{"buffer":0,"byteLength":72,"byteOffset":35940,"target":34963},{"buffer":0,"byteLength":288,"byteOffset":36012,"target":34962},{"buffer":0,"byteLength":288,"byteOffset":36300,"target":34962},{"buffer":0,"byteLength":192,"byteOffset":36588,"target":34962},{"buffer":0,"byteLength":2160,"byteOffset":36780,"target":34963},{"buffer":0,"byteLength":6336,"byteOffset":38940,"target":34962},{"buffer":0,"byteLength":6336,"byteOffset":45276,"target":34962},{"buffer":0,"byteLength":4224,"byteOffset":51612,"target":34962},{"buffer":0,"byteLength":3456,"byteOffset":55836,"target":34963},{"buffer":0,"byteLength":9996,"byteOffset":59292,"target":34962},{"buffer":0,"byteLength":9996,"byteOffset":69288,"target":34962},{"buffer":0,"byteLength":6664,"byteOffset":79284,"target":34962},{"buffer":0,"byteLength":69132,"byteOffset":85948,"target":34963},{"buffer":0,"byteLength":71028,"byteOffset":155080,"target":34962},{"buffer":0,"byteLength":71028,"byteOffset":226108,"target":34962},{"buffer":0,"byteLength":47352,"byteOffset":297136,"target":34962},{"buffer":0,"byteLength":3648,"byteOffset":344488,"target":34963},{"buffer":0,"byteLength":14592,"byteOffset":348136,"target":34962},{"buffer":0,"byteLength":14592,"byteOffset":362728,"target":34962},{"buffer":0,"byteLength":9728,"byteOffset":377320,"target":34962},{"buffer":0,"byteLength":1296,"byteOffset":387048,"target":34963},{"buffer":0,"byteLength":5112,"byteOffset":388344,"target":34962},{"buffer":0,"byteLength":5112,"byteOffset":393456,"target":34962},{"buffer":0,"byteLength":3408,"byteOffset":398568,"target":34962},{"buffer":0,"byteLength":42372,"byteOffset":401976,"target":34963},{"buffer":0,"byteLength":162372,"byteOffset":444348,"target":34962},{"buffer":0,"byteLength":162372,"byteOffset":606720,"target":34962},{"buffer":0,"byteLength":108248,"byteOffset":769092,"target":34962},{"buffer":0,"byteLength":16128,"byteOffset":877340,"target":34963},{"buffer":0,"byteLength":61764,"byteOffset":893468,"target":34962},{"buffer":0,"byteLength":61764,"byteOffset":955232,"target":34962},{"buffer":0,"byteLength":41176,"byteOffset":1016996,"target":34962},{"buffer":0,"byteLength":26688,"byteOffset":1058172,"target":34963},{"buffer":0,"byteLength":99708,"byteOffset":1084860,"target":34962},{"buffer":0,"byteLength":99708,"byteOffset":1184568,"target":34962},{"buffer":0,"byteLength":66472,"byteOffset":1284276,"target":34962},{"buffer":0,"byteLength":38124,"byteOffset":1350748,"target":34963},{"buffer":0,"byteLength":152736,"byteOffset":1388872,"target":34962},{"buffer":0,"byteLength":152736,"byteOffset":1541608,"target":34962},{"buffer":0,"byteLength":101824,"byteOffset":1694344,"target":34962},{"buffer":0,"byteLength":936,"byteOffset":1796168,"target":34963},{"buffer":0,"byteLength":3744,"byteOffset":1797104,"target":34962},{"buffer":0,"byteLength":3744,"byteOffset":1800848,"target":34962},{"buffer":0,"byteLength":2496,"byteOffset":1804592,"target":34962},{"buffer":0,"byteLength":6216,"byteOffset":1807088,"target":34963},{"buffer":0,"byteLength":21288,"byteOffset":1813304,"target":34962},{"buffer":0,"byteLength":21288,"byteOffset":1834592,"target":34962},{"buffer":0,"byteLength":14192,"byteOffset":1855880,"target":34962},{"buffer":0,"byteLength":10344,"byteOffset":1870072,"target":34963},{"buffer":0,"byteLength":39876,"byteOffset":1880416,"target":34962},{"buffer":0,"byteLength":39876,"byteOffset":1920292,"target":34962},{"buffer":0,"byteLength":26584,"byteOffset":1960168,"target":34962},{"buffer":0,"byteLength":3168,"byteOffset":1986752,"target":34963},{"buffer":0,"byteLength":12792,"byteOffset":1989920,"target":34962},{"buffer":0,"byteLength":12792,"byteOffset":2002712,"target":34962},{"buffer":0,"byteLength":8528,"byteOffset":2015504,"target":34962},{"buffer":0,"byteLength":264,"byteOffset":2024032,"target":34963},{"buffer":0,"byteLength":1104,"byteOffset":2024296,"target":34962},{"buffer":0,"byteLength":1104,"byteOffset":2025400,"target":34962},{"buffer":0,"byteLength":736,"byteOffset":2026504,"target":34962},{"buffer":0,"byteLength":16092,"byteOffset":2027240,"target":34963},{"buffer":0,"byteLength":63192,"byteOffset":2043332,"target":34962},{"buffer":0,"byteLength":63192,"byteOffset":2106524,"target":34962},{"buffer":0,"byteLength":42128,"byteOffset":2169716,"target":34962},{"buffer":0,"byteLength":2100,"byteOffset":2211844,"target":34963},{"buffer":0,"byteLength":8304,"byteOffset":2213944,"target":34962},{"buffer":0,"byteLength":8304,"byteOffset":2222248,"target":34962},{"buffer":0,"byteLength":5536,"byteOffset":2230552,"target":34962},{"buffer":0,"byteLength":1200,"byteOffset":2236088,"target":34963},{"buffer":0,"byteLength":4800,"byteOffset":2237288,"target":34962},{"buffer":0,"byteLength":4800,"byteOffset":2242088,"target":34962},{"buffer":0,"byteLength":3200,"byteOffset":2246888,"target":34962},{"buffer":0,"byteLength":1716,"byteOffset":2250088,"target":34963},{"buffer":0,"byteLength":6864,"byteOffset":2251804,"target":34962},{"buffer":0,"byteLength":6864,"byteOffset":2258668,"target":34962},{"buffer":0,"byteLength":4576,"byteOffset":2265532,"target":34962},{"buffer":0,"byteLength":504,"byteOffset":2270108,"target":34963},{"buffer":0,"byteLength":2016,"byteOffset":2270612,"target":34962},{"buffer":0,"byteLength":2016,"byteOffset":2272628,"target":34962},{"buffer":0,"byteLength":1344,"byteOffset":2274644,"target":34962},{"buffer":0,"byteLength":408,"byteOffset":2275988,"target":34963},{"buffer":0,"byteLength":1632,"byteOffset":2276396,"target":34962},{"buffer":0,"byteLength":1632,"byteOffset":2278028,"target":34962},{"buffer":0,"byteLength":1088,"byteOffset":2279660,"target":34962},{"buffer":0,"byteLength":1296,"byteOffset":2280748,"target":34963},{"buffer":0,"byteLength":4788,"byteOffset":2282044,"target":34962},{"buffer":0,"byteLength":4788,"byteOffset":2286832,"target":34962},{"buffer":0,"byteLength":3192,"byteOffset":2291620,"target":34962},{"buffer":0,"byteLength":864,"byteOffset":2294812,"target":34963},{"buffer":0,"byteLength":2304,"byteOffset":2295676,"target":34962},{"buffer":0,"byteLength":2304,"byteOffset":2297980,"target":34962},{"buffer":0,"byteLength":1536,"byteOffset":2300284,"target":34962},{"buffer":0,"byteLength":1296,"byteOffset":2301820,"target":34963},{"buffer":0,"byteLength":3600,"byteOffset":2303116,"target":34962},{"buffer":0,"byteLength":3600,"byteOffset":2306716,"target":34962},{"buffer":0,"byteLength":2400,"byteOffset":2310316,"target":34962},{"buffer":0,"byteLength":1296,"byteOffset":2312716,"target":34963},{"buffer":0,"byteLength":5148,"byteOffset":2314012,"target":34962},{"buffer":0,"byteLength":5148,"byteOffset":2319160,"target":34962},{"buffer":0,"byteLength":3432,"byteOffset":2324308,"target":34962},{"buffer":0,"byteLength":11220,"byteOffset":2327740,"target":34963},{"buffer":0,"byteLength":41196,"byteOffset":2338960,"target":34962},{"buffer":0,"byteLength":41196,"byteOffset":2380156,"target":34962},{"buffer":0,"byteLength":27464,"byteOffset":2421352,"target":34962},{"buffer":0,"byteLength":6456,"byteOffset":2448816,"target":34963},{"buffer":0,"byteLength":23676,"byteOffset":2455272,"target":34962},{"buffer":0,"byteLength":23676,"byteOffset":2478948,"target":34962},{"buffer":0,"byteLength":15784,"byteOffset":2502624,"target":34962},{"buffer":0,"byteLength":384,"byteOffset":2518408,"target":34963},{"buffer":0,"byteLength":1464,"byteOffset":2518792,"target":34962},{"buffer":0,"byteLength":1464,"byteOffset":2520256,"target":34962},{"buffer":0,"byteLength":976,"byteOffset":2521720,"target":34962},{"buffer":0,"byteLength":2400,"byteOffset":2522696,"target":34963},{"buffer":0,"byteLength":9288,"byteOffset":2525096,"target":34962},{"buffer":0,"byteLength":9288,"byteOffset":2534384,"target":34962},{"buffer":0,"byteLength":6192,"byteOffset":2543672,"target":34962},{"buffer":0,"byteLength":1200,"byteOffset":2549864,"target":34963},{"buffer":0,"byteLength":4800,"byteOffset":2551064,"target":34962},{"buffer":0,"byteLength":4800,"byteOffset":2555864,"target":34962},{"buffer":0,"byteLength":3200,"byteOffset":2560664,"target":34962},{"buffer":0,"byteLength":288,"byteOffset":2563864,"target":34963},{"buffer":0,"byteLength":1224,"byteOffset":2564152,"target":34962},{"buffer":0,"byteLength":1224,"byteOffset":2565376,"target":34962},{"buffer":0,"byteLength":816,"byteOffset":2566600,"target":34962}],"buffers":[{"byteLength":2567416,"uri":"Escenario_General.bin"}],"cameras":[{"extensions":{"S8S_v3d_camera":{"controls":"ORBIT","enablePan":true,"moveSpeed":1.0,"orbitMaxDistance":100000.0,"orbitMaxPolarAngle":1.3962634015954636,"orbitMaxZoom":100.0,"orbitMinDistance":5.0,"orbitMinPolarAngle":0.0,"orbitMinZoom":0.009999999776482582,"orbitTarget":[-21980.387254426016,38814.65592417712,43373.86901440684],"rotateSpeed":1.0,"viewportFitInitialAspect":1.4999999999999998,"viewportFitType":"FILL"}},"name":"cameraShape1","perspective":{"aspectRatio":1.4999999999999998,"yfov":0.6605947096585073,"zfar":1000000.0,"znear":100.0},"type":"perspective"}],"extensions":{"S8S_v3d_lights":{"lights":[]}},"extensionsUsed":["S8S_v3d_texture","S8S_v3d_materials","S8S_v3d_lights","S8S_v3d_camera","S8S_v3d_mesh","S8S_v3d_node","S8S_v3d_scene"],"images":[{"mimeType":"image/jpeg","uri":"Terrenoliviano.jpg"},{"mimeType":"image/vnd.radiance","uri":"kloofendal_48d_partly_cloudy_puresky_1k.hdr"}],"materials":[{"extensions":{"S8S_v3d_materials":{"gtaoVisible":true,"nodeGraph":{"edges":[{"fromNode":1,"fromOutput":0,"toInput":0,"toNode":0}],"nodes":[{"inputs":[[0.0,0.0,0.0,1],[0,0,0,0],[0,0,0]],"is_active_output":true,"name":"standardSurface3SG","outputs":[],"type":"SHADING_ENGINE_MY"},{"inputs":[1.0,[1.0,1.0,1.0],0.0,0.0,1.0,[1.0,1.0,1.0],0.4000000059604645,0.0,[1.0,1.0,1.0],0.0,[0.0,0.0,0.0],0.0,0.0,[1.0,1.0,1.0],[1.0,1.0,1.0],0.0,[1.0,1.0,1.0],0.10000000149011612,0.0,[1.0,1.0,1.0],0.30000001192092896,0.0,[1.0,1.0,1.0],[1.0,1.0,1.0],[1.0,1.0,1.0],[0.0,0.0,0.0],1.5],"name":"blanco_material","outputs":[[0.0,0.0,0.0,0],[0.0,0.0,0.0]],"thinWalled":false,"type":"STANDARD_SURFACE_AR"}]},"profile":"maya"}},"name":"blanco_material"},{"extensions":{"S8S_v3d_materials":{"gtaoVisible":true,"nodeGraph":{"edges":[{"fromNode":1,"fromOutput":0,"toInput":0,"toNode":0}],"nodes":[{"inputs":[[0.0,0.0,0.0,1],[0,0,0,0],[0,0,0]],"is_active_output":true,"name":"standardSurface4SG","outputs":[],"type":"SHADING_ENGINE_MY"},{"inputs":[1.0,[0.0,0.4230833053588867,1.0],0.0,0.0,1.0,[1.0,1.0,1.0],0.4000000059604645,0.0,[1.0,1.0,1.0],0.0,[0.0,0.0,0.0],0.0,0.0,[1.0,1.0,1.0],[1.0,1.0,1.0],0.0,[1.0,1.0,1.0],0.10000000149011612,0.0,[1.0,1.0,1.0],0.30000001192092896,1.0,[0.0,0.0,0.0],[1.0,1.0,1.0],[1.0,1.0,1.0],[0.0,0.0,0.0],1.5],"name":"bordes_material","outputs":[[0.0,0.0,0.0,0],[0.0,0.0,0.0]],"thinWalled":false,"type":"STANDARD_SURFACE_AR"}]},"profile":"maya"}},"name":"bordes_material"},{"extensions":{"S8S_v3d_materials":{"gtaoVisible":true,"nodeGraph":{"edges":[{"fromNode":1,"fromOutput":0,"toInput":0,"toNode":0},{"fromNode":2,"fromOutput":1,"toInput":1,"toNode":1},{"fromNode":3,"fromOutput":0,"toInput":0,"toNode":2}],"nodes":[{"inputs":[[0.0,0.0,0.0,1],[0,0,0,0],[0,0,0]],"is_active_output":true,"name":"standardSurface2SG","outputs":[],"type":"SHADING_ENGINE_MY"},{"inputs":[1.0,[0.0,0.0,0.0],0.0,0.0,1.0,[1.0,1.0,1.0],1.0,0.0,[1.0,1.0,1.0],0.0,[0.0,0.0,0.0],0.0,0.0,[1.0,1.0,1.0],[1.0,1.0,1.0],0.0,[1.0,1.0,1.0],0.10000000149011612,0.0,[1.0,1.0,1.0],0.30000001192092896,0.0,[1.0,1.0,1.0],[1.0,1.0,1.0],[1.0,1.0,1.0],[0.0,0.0,0.0],1.5],"name":"terreno_material","outputs":[[0.0,0.0,0.0,0],[0.0,0.0,0.0]],"thinWalled":false,"type":"STANDARD_SURFACE_AR"},{"fileHasAlpha":false,"inputs":[[0.0,0.0]],"name":"file1","outputs":[1.0,[0.0,0.0,0.0],[1578.0,1536.0],[0.0,0.0,0.0]],"texture":0,"type":"FILE_MY"},{"inputs":[[0.0,0.0],[1.0,1.0],0.0],"name":"place2dTexture1","outputs":[[0.0,0.0]],"type":"PLACE_2D_TEXTURE_MY","uvIndex":0}]},"profile":"maya"}},"name":"terreno_material"},{"extensions":{"S8S_v3d_materials":{"gtaoVisible":true,"nodeGraph":{"edges":[{"fromNode":1,"fromOutput":0,"toInput":0,"toNode":0}],"nodes":[{"inputs":[[0.0,0.0,0.0,1],[0,0,0,0],[0,0,0]],"is_active_output":true,"name":"standardSurface5SG","outputs":[],"type":"SHADING_ENGINE_MY"},{"inputs":[1.0,[0.03979799896478653,0.040890373289585114,0.05400000140070915],0.0,0.0,1.0,[1.0,1.0,1.0],0.4000000059604645,0.0,[1.0,1.0,1.0],0.0,[0.0,0.0,0.0],0.0,0.0,[1.0,1.0,1.0],[1.0,1.0,1.0],0.0,[1.0,1.0,1.0],0.10000000149011612,0.0,[1.0,1.0,1.0],0.30000001192092896,0.0,[1.0,1.0,1.0],[1.0,1.0,1.0],[1.0,1.0,1.0],[0.0,0.0,0.0],1.5],"name":"terreno_02_material","outputs":[[0.0,0.0,0.0,0],[0.0,0.0,0.0]],"thinWalled":false,"type":"STANDARD_SURFACE_AR"}]},"profile":"maya"}},"name":"terreno_02_material"},{"extensions":{"S8S_v3d_materials":{"nodeGraph":{"edges":[{"fromNode":1,"fromOutput":1,"toInput":0,"toNode":0},{"fromNode":2,"fromOutput":0,"toInput":0,"toNode":1}],"nodes":[{"inputs":[[0.0,0.0,0.0],0.5],"is_active_output":true,"name":"aiSkyDomeLightShape1","outputs":[],"type":"SKYDOME_LIGHT_AR"},{"fileHasAlpha":false,"inputs":[[0.0,0.0]],"name":"file2","outputs":[1.0,[0.0,0.0,0.0],[1024.0,512.0],[0.0,0.0,0.0]],"texture":1,"type":"FILE_MY"},{"inputs":[[0.0,0.0],[1.0,1.0],0.0],"name":"place2dTexture2","outputs":[[0.0,0.0]],"type":"PLACE_2D_TEXTURE_MY","uvIndex":0}]},"profile":"maya"}},"name":"Verge3D_Environment"}],"meshes":[{"extensions":{"S8S_v3d_mesh":{}},"name":"models_mesh24Shape","primitives":[{"attributes":{"NORMAL":2,"POSITION":1,"TEXCOORD_0":3},"indices":0,"material":0,"mode":4}]},{"extensions":{"S8S_v3d_mesh":{}},"name":"models_mesh27Shape","primitives":[{"attributes":{"NORMAL":6,"POSITION":5,"TEXCOORD_0":7},"indices":4,"material":0,"mode":4}]},{"extensions":{"S8S_v3d_mesh":{}},"name":"models_mesh1Shape","primitives":[{"attributes":{"NORMAL":10,"POSITION":9,"TEXCOORD_0":11},"indices":8,"material":0,"mode":4}]},{"extensions":{"S8S_v3d_mesh":{}},"name":"models_mesh2Shape","primitives":[{"attributes":{"NORMAL":14,"POSITION":13,"TEXCOORD_0":15},"indices":12,"material":0,"mode":4}]},{"extensions":{"S8S_v3d_mesh":{}},"name":"models_mesh3Shape","primitives":[{"attributes":{"NORMAL":18,"POSITION":17,"TEXCOORD_0":19},"indices":16,"material":0,"mode":4}]},{"extensions":{"S8S_v3d_mesh":{}},"name":"models_mesh6Shape","primitives":[{"attributes":{"NORMAL":22,"POSITION":21,"TEXCOORD_0":23},"indices":20,"material":0,"mode":4}]},{"extensions":{"S8S_v3d_mesh":{}},"name":"models_mesh7Shape","primitives":[{"attributes":{"NORMAL":26,"POSITION":25,"TEXCOORD_0":27},"indices":24,"material":0,"mode":4}]},{"extensions":{"S8S_v3d_mesh":{}},"name":"models_mesh8Shape","primitives":[{"attributes":{"NORMAL":30,"POSITION":29,"TEXCOORD_0":31},"indices":28,"material":0,"mode":4}]},{"extensions":{"S8S_v3d_mesh":{}},"name":"models_mesh9Shape","primitives":[{"attributes":{"NORMAL":34,"POSITION":33,"TEXCOORD_0":35},"indices":32,"material":0,"mode":4}]},{"extensions":{"S8S_v3d_mesh":{}},"name":"models_mesh11Shape","primitives":[{"attributes":{"NORMAL":38,"POSITION":37,"TEXCOORD_0":39},"indices":36,"material":0,"mode":4}]},{"extensions":{"S8S_v3d_mesh":{}},"name":"models_mesh12Shape","primitives":[{"attributes":{"NORMAL":42,"POSITION":41,"TEXCOORD_0":43},"indices":40,"material":0,"mode":4}]},{"extensions":{"S8S_v3d_mesh":{}},"name":"models_mesh13Shape","primitives":[{"attributes":{"NORMAL":46,"POSITION":45,"TEXCOORD_0":47},"indices":44,"material":0,"mode":4}]},{"extensions":{"S8S_v3d_mesh":{}},"name":"models_mesh15Shape","primitives":[{"attributes":{"NORMAL":50,"POSITION":49,"TEXCOORD_0":51},"indices":48,"material":0,"mode":4}]},{"extensions":{"S8S_v3d_mesh":{}},"name":"models_mesh16Shape","primitives":[{"attributes":{"NORMAL":54,"POSITION":53,"TEXCOORD_0":55},"indices":52,"material":0,"mode":4}]},{"extensions":{"S8S_v3d_mesh":{}},"name":"models_mesh17Shape","primitives":[{"attributes":{"NORMAL":58,"POSITION":57,"TEXCOORD_0":59},"indices":56,"material":0,"mode":4}]},{"extensions":{"S8S_v3d_mesh":{}},"name":"models_mesh18Shape","primitives":[{"attributes":{"NORMAL":62,"POSITION":61,"TEXCOORD_0":63},"indices":60,"material":0,"mode":4}]},{"extensions":{"S8S_v3d_mesh":{}},"name":"models_mesh19Shape","primitives":[{"attributes":{"NORMAL":66,"POSITION":65,"TEXCOORD_0":67},"indices":64,"material":0,"mode":4}]},{"extensions":{"S8S_v3d_mesh":{}},"name":"models_mesh20Shape","primitives":[{"attributes":{"NORMAL":70,"POSITION":69,"TEXCOORD_0":71},"indices":68,"material":0,"mode":4}]},{"extensions":{"S8S_v3d_mesh":{}},"name":"models_mesh21Shape","primitives":[{"attributes":{"NORMAL":74,"POSITION":73,"TEXCOORD_0":75},"indices":72,"material":0,"mode":4}]},{"extensions":{"S8S_v3d_mesh":{}},"name":"models_mesh23Shape","primitives":[{"attributes":{"NORMAL":78,"POSITION":77,"TEXCOORD_0":79},"indices":76,"material":0,"mode":4}]},{"extensions":{"S8S_v3d_mesh":{}},"name":"models_mesh25Shape","primitives":[{"attributes":{"NORMAL":82,"POSITION":81,"TEXCOORD_0":83},"indices":80,"material":0,"mode":4}]},{"extensions":{"S8S_v3d_mesh":{}},"name":"models_mesh26Shape","primitives":[{"attributes":{"NORMAL":86,"POSITION":85,"TEXCOORD_0":87},"indices":84,"material":0,"mode":4}]},{"extensions":{"S8S_v3d_mesh":{}},"name":"pCubeShape4519","primitives":[{"attributes":{"NORMAL":90,"POSITION":89,"TEXCOORD_0":91},"indices":88,"material":0,"mode":4}]},{"extensions":{"S8S_v3d_mesh":{}},"name":"pCubeShape4637","primitives":[{"attributes":{"NORMAL":94,"POSITION":93,"TEXCOORD_0":95},"indices":92,"material":0,"mode":4}]},{"extensions":{"S8S_v3d_mesh":{}},"name":"pCubeShape4638","primitives":[{"attributes":{"NORMAL":98,"POSITION":97,"TEXCOORD_0":99},"indices":96,"material":0,"mode":4}]},{"extensions":{"S8S_v3d_mesh":{}},"name":"pCubeShape4639","primitives":[{"attributes":{"NORMAL":102,"POSITION":101,"TEXCOORD_0":103},"indices":100,"material":0,"mode":4}]},{"extensions":{"S8S_v3d_mesh":{}},"name":"pCubeShape4640","primitives":[{"attributes":{"NORMAL":106,"POSITION":105,"TEXCOORD_0":107},"indices":104,"material":0,"mode":4}]},{"extensions":{"S8S_v3d_mesh":{}},"name":"pCubeShape4669","primitives":[{"attributes":{"NORMAL":110,"POSITION":109,"TEXCOORD_0":111},"indices":108,"material":0,"mode":4}]},{"extensions":{"S8S_v3d_mesh":{}},"name":"moliendaBordes_meshShape","primitives":[{"attributes":{"NORMAL":114,"POSITION":113,"TEXCOORD_0":115},"indices":112,"material":1,"mode":4}]},{"extensions":{"S8S_v3d_mesh":{}},"name":"chancadoBordes_meshShape","primitives":[{"attributes":{"NORMAL":118,"POSITION":117,"TEXCOORD_0":119},"indices":116,"material":1,"mode":4}]},{"extensions":{"S8S_v3d_mesh":{}},"name":"terreno_meshShape","primitives":[{"attributes":{"NORMAL":122,"POSITION":121,"TEXCOORD_0":123},"indices":120,"material":2,"mode":4},{"attributes":{"NORMAL":126,"POSITION":125,"TEXCOORD_0":127},"indices":124,"material":3,"mode":4}]},{"extensions":{"S8S_v3d_mesh":{}},"name":"pCubeShape5018","primitives":[{"attributes":{"NORMAL":130,"POSITION":129,"TEXCOORD_0":131},"indices":128,"material":1,"mode":4}]},{"extensions":{"S8S_v3d_mesh":{}},"name":"chancado_meshShape","primitives":[{"attributes":{"NORMAL":134,"POSITION":133,"TEXCOORD_0":135},"indices":132,"material":0,"mode":4}]},{"extensions":{"S8S_v3d_mesh":{}},"name":"pCylinder2170Shape","primitives":[{"attributes":{"NORMAL":138,"POSITION":137,"TEXCOORD_0":139},"indices":136,"material":0,"mode":4}]},{"extensions":{"S8S_v3d_mesh":{}},"name":"BackFill_meshShape","primitives":[{"attributes":{"NORMAL":142,"POSITION":141,"TEXCOORD_0":143},"indices":140,"material":0,"mode":4}]},{"extensions":{"S8S_v3d_mesh":{}},"name":"molienda_meshShape","primitives":[{"attributes":{"NORMAL":146,"POSITION":145,"TEXCOORD_0":147},"indices":144,"material":0,"mode":4}]},{"extensions":{"S8S_v3d_mesh":{}},"name":"pCube5021Shape","primitives":[{"attributes":{"NORMAL":150,"POSITION":149,"TEXCOORD_0":151},"indices":148,"material":0,"mode":4}]},{"extensions":{"S8S_v3d_mesh":{}},"name":"pCube5022Shape","primitives":[{"attributes":{"NORMAL":154,"POSITION":153,"TEXCOORD_0":155},"indices":152,"material":0,"mode":4}]},{"extensions":{"S8S_v3d_mesh":{}},"name":"pCube5023Shape","primitives":[{"attributes":{"NORMAL":158,"POSITION":157,"TEXCOORD_0":159},"indices":156,"material":0,"mode":4}]},{"extensions":{"S8S_v3d_mesh":{}},"name":"pCube5024Shape","primitives":[{"attributes":{"NORMAL":162,"POSITION":161,"TEXCOORD_0":163},"indices":160,"material":0,"mode":4}]},{"extensions":{"S8S_v3d_mesh":{}},"name":"pCube5025Shape","primitives":[{"attributes":{"NORMAL":166,"POSITION":165,"TEXCOORD_0":167},"indices":164,"material":0,"mode":4}]},{"extensions":{"S8S_v3d_mesh":{}},"name":"deshidratacionZN_meshShape","primitives":[{"attributes":{"NORMAL":170,"POSITION":169,"TEXCOORD_0":171},"indices":168,"material":0,"mode":4}]},{"extensions":{"S8S_v3d_mesh":{}},"name":"pCube5027Shape","primitives":[{"attributes":{"NORMAL":174,"POSITION":173,"TEXCOORD_0":175},"indices":172,"material":0,"mode":4}]},{"extensions":{"S8S_v3d_mesh":{}},"name":"extrav13_mesh443Shape","primitives":[{"attributes":{"NORMAL":178,"POSITION":177,"TEXCOORD_0":179},"indices":176,"material":0,"mode":4}]},{"extensions":{"S8S_v3d_mesh":{}},"name":"extrav12_mesh401Shape","primitives":[{"attributes":{"NORMAL":182,"POSITION":181,"TEXCOORD_0":183},"indices":180,"material":0,"mode":4}]},{"extensions":{"S8S_v3d_mesh":{}},"name":"pCube5028Shape","primitives":[{"attributes":{"NORMAL":186,"POSITION":185,"TEXCOORD_0":187},"indices":184,"material":0,"mode":4}]},{"extensions":{"S8S_v3d_mesh":{}},"name":"pCube5029Shape","primitives":[{"attributes":{"NORMAL":190,"POSITION":189,"TEXCOORD_0":191},"indices":188,"material":0,"mode":4}]},{"extensions":{"S8S_v3d_mesh":{}},"name":"backFillBordes_meshShape","primitives":[{"attributes":{"NORMAL":194,"POSITION":193,"TEXCOORD_0":195},"indices":192,"material":1,"mode":4}]},{"extensions":{"S8S_v3d_mesh":{}},"name":"deshidratacionZNBordes_meshShape","primitives":[{"attributes":{"NORMAL":198,"POSITION":197,"TEXCOORD_0":199},"indices":196,"material":1,"mode":4}]},{"extensions":{"S8S_v3d_mesh":{}},"name":"pCubeShape5037","primitives":[{"attributes":{"NORMAL":202,"POSITION":201,"TEXCOORD_0":203},"indices":200,"material":1,"mode":4}]},{"extensions":{"S8S_v3d_mesh":{}},"name":"pCubeShape5038","primitives":[{"attributes":{"NORMAL":206,"POSITION":205,"TEXCOORD_0":207},"indices":204,"material":1,"mode":4}]},{"extensions":{"S8S_v3d_mesh":{}},"name":"pCube5041Shape","primitives":[{"attributes":{"NORMAL":210,"POSITION":209,"TEXCOORD_0":211},"indices":208,"material":0,"mode":4}]},{"extensions":{"S8S_v3d_mesh":{}},"name":"pCylinder2172Shape","primitives":[{"attributes":{"NORMAL":214,"POSITION":213,"TEXCOORD_0":215},"indices":212,"material":0,"mode":4}]},{"extensions":{"S8S_v3d_mesh":{}},"name":"models_mesh30Shape","primitives":[{"attributes":{"NORMAL":218,"POSITION":217,"TEXCOORD_0":219},"indices":216,"material":0,"mode":4}]},{"extensions":{"S8S_v3d_mesh":{}},"name":"pCube5042Shape","primitives":[{"attributes":{"NORMAL":222,"POSITION":221,"TEXCOORD_0":223},"indices":220,"material":0,"mode":4}]},{"extensions":{"S8S_v3d_mesh":{}},"name":"extrav13_mesh444Shape","primitives":[{"attributes":{"NORMAL":226,"POSITION":225,"TEXCOORD_0":227},"indices":224,"material":0,"mode":4}]},{"extensions":{"S8S_v3d_mesh":{}},"name":"pCube5043Shape","primitives":[{"attributes":{"NORMAL":230,"POSITION":229,"TEXCOORD_0":231},"indices":228,"material":0,"mode":4}]}],"nodes":[{"extensions":{"S8S_v3d_node":{"frustumCulling":true,"hidden":false,"hidpiCompositing":false,"renderOrder":0,"useCastShadows":true,"useShadows":true}},"mesh":0,"name":"models_mesh24","rotation":[-0.7071067811865024,2.528811408908525e-07,2.528811408908525e-07,0.7071067811865024],"scale":[0.031512,0.031512,0.039625],"translation":[-22434.48046875,39304.5,32035.509765625]},{"extensions":{"S8S_v3d_node":{"frustumCulling":true,"hidden":false,"hidpiCompositing":false,"renderOrder":0,"useCastShadows":true,"useShadows":true}},"mesh":1,"name":"models_mesh27","rotation":[-0.7071067811865024,2.528811408908525e-07,2.528811408908525e-07,0.7071067811865024],"scale":[0.031512,0.031512,0.039625],"translation":[-21734.37890625,39292.40625,32340.509765625]},{"extensions":{"S8S_v3d_node":{"frustumCulling":true,"hidden":false,"hidpiCompositing":false,"renderOrder":0,"useCastShadows":true,"useShadows":true}},"mesh":2,"name":"models_mesh1","rotation":[-0.7071067811865024,2.528810973456854e-07,2.528810973456854e-07,0.7071067811865024],"scale":[0.09999999999999999,0.09999999999999999,0.09999999999999999],"translation":[-32579.556640625,38381.0,34585.6796875]},{"extensions":{"S8S_v3d_node":{"frustumCulling":true,"hidden":false,"hidpiCompositing":false,"renderOrder":0,"useCastShadows":true,"useShadows":true}},"mesh":3,"name":"models_mesh2","rotation":[-0.7071067811865024,2.5288100137934964e-07,2.5288100137934964e-07,0.7071067811865024],"scale":[0.031512,0.031512,0.176792],"translation":[-3985.419677734375,40852.78125,36966.88671875]},{"extensions":{"S8S_v3d_node":{"frustumCulling":true,"hidden":false,"hidpiCompositing":false,"renderOrder":0,"useCastShadows":true,"useShadows":true}},"mesh":4,"name":"models_mesh3","rotation":[-0.7071067811865024,2.5288108601059103e-07,2.5288108601059103e-07,0.7071067811865024],"scale":[0.248495,0.248495,0.09999999999999999],"translation":[-26107.564453125,37581.0,51502.578125]},{"extensions":{"S8S_v3d_node":{"frustumCulling":true,"hidden":false,"hidpiCompositing":false,"renderOrder":0,"useCastShadows":true,"useShadows":true}},"mesh":5,"name":"models_mesh6","rotation":[-0.7071067811865024,2.528810973456854e-07,2.528810973456854e-07,0.7071067811865024],"scale":[0.09999999999999999,0.09999999999999999,0.09999999999999999],"translation":[941.7536010742188,40982.78125,34861.15234375]},{"extensions":{"S8S_v3d_node":{"frustumCulling":true,"hidden":false,"hidpiCompositing":false,"renderOrder":0,"useCastShadows":true,"useShadows":true}},"mesh":6,"name":"models_mesh7","rotation":[-0.7071067811865024,2.528810973456854e-07,2.528810973456854e-07,0.7071067811865024],"scale":[0.09999999999999999,0.09999999999999999,0.09999999999999999],"translation":[-29517.5703125,38190.09375,47973.71484375]},{"extensions":{"S8S_v3d_node":{"frustumCulling":true,"hidden":false,"hidpiCompositing":false,"renderOrder":0,"useCastShadows":true,"useShadows":true}},"mesh":7,"name":"models_mesh8","rotation":[-0.7071067811865024,2.528810973456854e-07,2.528810973456854e-07,0.7071067811865024],"scale":[0.09999999999999999,0.09999999999999999,0.09999999999999999],"translation":[-3870.22802734375,40802.78125,34668.46484375]},{"extensions":{"S8S_v3d_node":{"frustumCulling":true,"hidden":false,"hidpiCompositing":false,"renderOrder":0,"useCastShadows":true,"useShadows":true}},"mesh":8,"name":"models_mesh9","rotation":[-0.7071067811865024,2.528810973456854e-07,2.528810973456854e-07,0.7071067811865024],"scale":[0.09999999999999999,0.09999999999999999,0.09999999999999999],"translation":[-31822.642578125,38306.0,44564.98046875]},{"extensions":{"S8S_v3d_node":{"frustumCulling":true,"hidden":false,"hidpiCompositing":false,"renderOrder":0,"useCastShadows":true,"useShadows":true}},"mesh":9,"name":"models_mesh11","rotation":[-0.7071067811865024,2.528810973456854e-07,2.528810973456854e-07,0.7071067811865024],"scale":[0.09999999999999999,0.09999999999999999,0.09999999999999999],"translation":[-29303.392578125,38980.4375,47996.65234375]},{"extensions":{"S8S_v3d_node":{"frustumCulling":true,"hidden":false,"hidpiCompositing":false,"renderOrder":0,"useCastShadows":true,"useShadows":true}},"mesh":10,"name":"models_mesh12","rotation":[-0.7071067811865024,2.528810973456854e-07,2.528810973456854e-07,0.7071067811865024],"scale":[0.09999999999999999,0.09999999999999999,0.09999999999999999],"translation":[-3983.940185546875,40592.78125,36972.55859375]},{"extensions":{"S8S_v3d_node":{"frustumCulling":true,"hidden":false,"hidpiCompositing":false,"renderOrder":0,"useCastShadows":true,"useShadows":true}},"mesh":11,"name":"models_mesh13","rotation":[-0.7071067811865024,2.528810973456854e-07,2.528810973456854e-07,0.7071067811865024],"scale":[0.09999999999999999,0.09999999999999999,0.09999999999999999],"translation":[-27680.142578125,38081.78125,47429.26953125]},{"extensions":{"S8S_v3d_node":{"frustumCulling":true,"hidden":false,"hidpiCompositing":false,"renderOrder":0,"useCastShadows":true,"useShadows":true}},"mesh":12,"name":"models_mesh15","rotation":[-0.7071067811865024,2.528810973456854e-07,2.528810973456854e-07,0.7071067811865024],"scale":[0.09999999999999999,0.09999999999999999,0.09999999999999999],"translation":[-28633.798828125,38002.625,47432.140625]},{"extensions":{"S8S_v3d_node":{"frustumCulling":true,"hidden":false,"hidpiCompositing":false,"renderOrder":0,"useCastShadows":true,"useShadows":true}},"mesh":13,"name":"models_mesh16","rotation":[-0.7071067811865024,2.528810973456854e-07,2.528810973456854e-07,0.7071067811865024],"scale":[0.09999999999999999,0.09999999999999999,0.09999999999999999],"translation":[-29089.20703125,38190.09375,48019.578125]},{"extensions":{"S8S_v3d_node":{"frustumCulling":true,"hidden":false,"hidpiCompositing":false,"renderOrder":0,"useCastShadows":true,"useShadows":true}},"mesh":14,"name":"models_mesh17","rotation":[-0.7071067811865024,2.528810973456854e-07,2.528810973456854e-07,0.7071067811865024],"scale":[0.09999999999999999,0.09999999999999999,0.09999999999999999],"translation":[-27821.44921875,38081.78125,46217.53125]},{"extensions":{"S8S_v3d_node":{"frustumCulling":true,"hidden":false,"hidpiCompositing":false,"renderOrder":0,"useCastShadows":true,"useShadows":true}},"mesh":15,"name":"models_mesh18","rotation":[-0.7071067811865024,2.528810973456854e-07,2.528810973456854e-07,0.7071067811865024],"scale":[0.09999999999999999,0.09999999999999999,0.09999999999999999],"translation":[-29516.529296875,38426.1875,46993.5]},{"extensions":{"S8S_v3d_node":{"frustumCulling":true,"hidden":false,"hidpiCompositing":false,"renderOrder":0,"useCastShadows":true,"useShadows":true}},"mesh":16,"name":"models_mesh19","rotation":[-0.7071067811865024,2.528810973456854e-07,2.528810973456854e-07,0.7071067811865024],"scale":[0.09999999999999999,0.09999999999999999,0.09999999999999999],"translation":[-29326.3203125,38190.09375,48210.828125]},{"extensions":{"S8S_v3d_node":{"frustumCulling":true,"hidden":false,"hidpiCompositing":false,"renderOrder":0,"useCastShadows":true,"useShadows":true}},"mesh":17,"name":"models_mesh20","rotation":[-0.7071067811865024,2.528810973456854e-07,2.528810973456854e-07,0.7071067811865024],"scale":[0.09999999999999999,0.09999999999999999,0.09999999999999999],"translation":[-29280.455078125,38190.09375,47782.47265625]},{"extensions":{"S8S_v3d_node":{"frustumCulling":true,"hidden":false,"hidpiCompositing":false,"renderOrder":0,"useCastShadows":true,"useShadows":true}},"mesh":18,"name":"models_mesh21","rotation":[-0.7071067811865024,2.528810973456854e-07,2.528810973456854e-07,0.7071067811865024],"scale":[0.09999999999999999,0.09999999999999999,0.09999999999999999],"translation":[-27906.486328125,38081.78125,46622.71484375]},{"extensions":{"S8S_v3d_node":{"frustumCulling":true,"hidden":false,"hidpiCompositing":false,"renderOrder":0,"useCastShadows":true,"useShadows":true}},"mesh":19,"name":"models_mesh23","rotation":[-0.7071067811865024,2.528810973456854e-07,2.528810973456854e-07,0.7071067811865024],"scale":[0.09999999999999999,0.09999999999999999,0.09999999999999999],"translation":[-3940.065185546875,40802.78125,35711.34375]},{"extensions":{"S8S_v3d_node":{"frustumCulling":true,"hidden":false,"hidpiCompositing":false,"renderOrder":0,"useCastShadows":true,"useShadows":true}},"mesh":20,"name":"models_mesh25","rotation":[-0.7071067811865024,2.528810910653157e-07,2.528810910653157e-07,0.7071067811865024],"scale":[0.04026300000000001,0.04026300000000001,0.09999999999999999],"translation":[-22666.734375,37603.625,53002.0]},{"extensions":{"S8S_v3d_node":{"frustumCulling":true,"hidden":false,"hidpiCompositing":false,"renderOrder":0,"useCastShadows":true,"useShadows":true}},"mesh":21,"name":"models_mesh26","rotation":[-0.7071067811865024,2.5288108601059103e-07,2.5288108601059103e-07,0.7071067811865024],"scale":[0.248495,0.248495,0.09999999999999999],"translation":[-24387.072265625,37581.0,53463.9375]},{"extensions":{"S8S_v3d_node":{"frustumCulling":true,"hidden":false,"hidpiCompositing":false,"renderOrder":0,"useCastShadows":true,"useShadows":true}},"mesh":22,"name":"pCube4519","rotation":[1.2533405625453215e-08,-0.4090947246902041,-2.8264373919022434e-07,0.9124919211864652],"scale":[1.0,0.062079863222044215,1.0],"translation":[-35228.71780012801,38582.428758301336,47721.34960127696]},{"extensions":{"S8S_v3d_node":{"frustumCulling":true,"hidden":false,"hidpiCompositing":false,"renderOrder":0,"useCastShadows":true,"useShadows":true}},"mesh":23,"name":"pCube4637","rotation":[-9.628571805918255e-08,-0.4147170652444846,-4.3882974069320013e-08,0.9099504139209954],"scale":[0.9999999999999999,0.06207986322204421,0.9999999999999999],"translation":[-26605.241660511394,38670.9954701452,45296.40884578917]},{"extensions":{"S8S_v3d_node":{"frustumCulling":true,"hidden":false,"hidpiCompositing":false,"renderOrder":0,"useCastShadows":true,"useShadows":true}},"mesh":24,"name":"pCube4638","rotation":[-9.628571805918255e-08,-0.4147170652444846,-4.3882974069320013e-08,0.9099504139209954],"scale":[0.9999999999999999,0.06207986322204421,0.9999999999999999],"translation":[-26301.79869784154,38958.97305746575,45645.51686665546]},{"extensions":{"S8S_v3d_node":{"frustumCulling":true,"hidden":false,"hidpiCompositing":false,"renderOrder":0,"useCastShadows":true,"useShadows":true}},"mesh":25,"name":"pCube4639","rotation":[-9.628571805918255e-08,-0.4147170652444846,-4.3882974069320013e-08,0.9099504139209954],"scale":[0.9999999999999999,0.06207986322204421,0.9999999999999999],"translation":[-27851.35079871456,38958.97349195669,46992.37951968128]},{"extensions":{"S8S_v3d_node":{"frustumCulling":true,"hidden":false,"hidpiCompositing":false,"renderOrder":0,"useCastShadows":true,"useShadows":true}},"mesh":26,"name":"pCube4640","rotation":[-9.628571805918255e-08,-0.4147170652444846,-4.3882974069320013e-08,0.9099504139209954],"scale":[0.9999999999999999,0.06207986322204421,0.9999999999999999],"translation":[-27851.15586484319,38958.973534243996,47297.19665671819]},{"extensions":{"S8S_v3d_node":{"frustumCulling":true,"hidden":false,"hidpiCompositing":false,"renderOrder":0,"useCastShadows":true,"useShadows":true}},"mesh":27,"name":"pCube4669","rotation":[-9.628571805918255e-08,-0.4147170652444846,-4.3882974069320013e-08,0.9099504139209954],"scale":[0.9999999999999999,0.06207986322204421,0.9999999999999999],"translation":[-29432.25600041767,38677.29269670381,47576.90631764721]},{"extensions":{"S8S_v3d_node":{"frustumCulling":true,"hidden":false,"hidpiCompositing":false,"renderOrder":0,"useCastShadows":true,"useShadows":true}},"mesh":28,"name":"moliendaBordes_mesh","rotation":[0.0,0.0,0.0,1.0],"scale":[1.0,1.0,1.0],"translation":[0.0,0.0,0.0]},{"extensions":{"S8S_v3d_node":{"frustumCulling":true,"hidden":false,"hidpiCompositing":false,"renderOrder":0,"useCastShadows":true,"useShadows":true}},"mesh":29,"name":"chancadoBordes_mesh","rotation":[0.0,0.0,0.0,1.0],"scale":[1.0,1.0,1.0],"translation":[0.0,0.0,0.0]},{"extensions":{"S8S_v3d_node":{"frustumCulling":true,"hidden":false,"hidpiCompositing":false,"renderOrder":0,"useCastShadows":true,"useShadows":true}},"mesh":30,"name":"terreno_mesh","rotation":[-0.7071067811865476,0.0,0.0,0.7071067811865476],"scale":[1.0,1.0,1.0],"translation":[-15587.6953125,66269.375,38718.671875]},{"extensions":{"S8S_v3d_node":{"groupNames":["defaultLightSet"],"hidden":false,"hidpiCompositing":false}},"name":"aiSkyDomeLight1","rotation":[0.0,0.0,0.0,1.0],"scale":[1.0,1.0,1.0],"translation":[0.0,0.0,0.0]},{"extensions":{"S8S_v3d_node":{"frustumCulling":true,"hidden":false,"hidpiCompositing":false,"renderOrder":0,"useCastShadows":true,"useShadows":true}},"mesh":31,"name":"pCube5018","rotation":[0.0,0.0,0.0,1.0],"scale":[1.0,1.0,1.0],"translation":[0.0,0.0,0.0]},{"extensions":{"S8S_v3d_node":{"frustumCulling":true,"hidden":false,"hidpiCompositing":false,"renderOrder":0,"useCastShadows":true,"useShadows":true}},"mesh":32,"name":"chancado_mesh","rotation":[0.0,0.0,0.0,1.0],"scale":[1.0,1.0,1.0],"translation":[0.0,0.0,0.0]},{"extensions":{"S8S_v3d_node":{"frustumCulling":true,"hidden":false,"hidpiCompositing":false,"renderOrder":0,"useCastShadows":true,"useShadows":true}},"mesh":33,"name":"pCylinder2170","rotation":[0.0,0.0,0.0,1.0],"scale":[1.0,1.0,1.0],"translation":[0.0,0.0,0.0]},{"extensions":{"S8S_v3d_node":{"frustumCulling":true,"hidden":false,"hidpiCompositing":false,"renderOrder":0,"useCastShadows":true,"useShadows":true}},"mesh":34,"name":"BackFill_mesh","rotation":[0.0,0.0,0.0,1.0],"scale":[1.0,1.0,1.0],"translation":[0.0,0.0,0.0]},{"extensions":{"S8S_v3d_node":{"frustumCulling":true,"hidden":false,"hidpiCompositing":false,"renderOrder":0,"useCastShadows":true,"useShadows":true}},"mesh":35,"name":"molienda_mesh","rotation":[0.0,0.0,0.0,1.0],"scale":[1.0,1.0,1.0],"translation":[0.0,0.0,0.0]},{"extensions":{"S8S_v3d_node":{"frustumCulling":true,"hidden":false,"hidpiCompositing":false,"renderOrder":0,"useCastShadows":true,"useShadows":true}},"mesh":36,"name":"pCube5021","rotation":[0.0,0.0,0.0,1.0],"scale":[1.0,1.0,1.0],"translation":[0.0,0.0,0.0]},{"extensions":{"S8S_v3d_node":{"frustumCulling":true,"hidden":false,"hidpiCompositing":false,"renderOrder":0,"useCastShadows":true,"useShadows":true}},"mesh":37,"name":"pCube5022","rotation":[0.0,0.0,0.0,1.0],"scale":[1.0,1.0,1.0],"translation":[0.0,0.0,0.0]},{"extensions":{"S8S_v3d_node":{"frustumCulling":true,"hidden":false,"hidpiCompositing":false,"renderOrder":0,"useCastShadows":true,"useShadows":true}},"mesh":38,"name":"pCube5023","rotation":[0.0,0.0,0.0,1.0],"scale":[1.0,1.0,1.0],"translation":[0.0,0.0,0.0]},{"extensions":{"S8S_v3d_node":{"frustumCulling":true,"hidden":false,"hidpiCompositing":false,"renderOrder":0,"useCastShadows":true,"useShadows":true}},"mesh":39,"name":"pCube5024","rotation":[0.0,0.0,0.0,1.0],"scale":[1.0,1.0,1.0],"translation":[0.0,0.0,0.0]},{"extensions":{"S8S_v3d_node":{"frustumCulling":true,"hidden":false,"hidpiCompositing":false,"renderOrder":0,"useCastShadows":true,"useShadows":true}},"mesh":40,"name":"pCube5025","rotation":[0.0,0.0,0.0,1.0],"scale":[1.0,1.0,1.0],"translation":[0.0,0.0,0.0]},{"extensions":{"S8S_v3d_node":{"frustumCulling":true,"hidden":false,"hidpiCompositing":false,"renderOrder":0,"useCastShadows":true,"useShadows":true}},"mesh":41,"name":"deshidratacionZN_mesh","rotation":[0.0,0.0,0.0,1.0],"scale":[1.0,1.0,1.0],"translation":[0.0,0.0,0.0]},{"extensions":{"S8S_v3d_node":{"frustumCulling":true,"hidden":false,"hidpiCompositing":false,"renderOrder":0,"useCastShadows":true,"useShadows":true}},"mesh":42,"name":"pCube5027","rotation":[0.0,0.0,0.0,1.0],"scale":[1.0,1.0,1.0],"translation":[0.0,0.0,0.0]},{"extensions":{"S8S_v3d_node":{"frustumCulling":true,"hidden":false,"hidpiCompositing":false,"renderOrder":0,"useCastShadows":true,"useShadows":true}},"mesh":43,"name":"extrav13_mesh443","rotation":[0.0,0.0,0.0,1.0],"scale":[1.0,1.0,1.0],"translation":[0.0,0.0,0.0]},{"extensions":{"S8S_v3d_node":{"frustumCulling":true,"hidden":false,"hidpiCompositing":false,"renderOrder":0,"useCastShadows":true,"useShadows":true}},"mesh":44,"name":"extrav12_mesh401","rotation":[0.0,0.0,0.0,1.0],"scale":[1.0,1.0,1.0],"translation":[0.0,0.0,0.0]},{"extensions":{"S8S_v3d_node":{"frustumCulling":true,"hidden":false,"hidpiCompositing":false,"renderOrder":0,"useCastShadows":true,"useShadows":true}},"mesh":45,"name":"pCube5028","rotation":[0.0,0.0,0.0,1.0],"scale":[1.0,1.0,1.0],"translation":[0.0,0.0,0.0]},{"extensions":{"S8S_v3d_node":{"frustumCulling":true,"hidden":false,"hidpiCompositing":false,"renderOrder":0,"useCastShadows":true,"useShadows":true}},"mesh":46,"name":"pCube5029","rotation":[0.0,0.0,0.0,1.0],"scale":[1.0,1.0,1.0],"translation":[0.0,0.0,0.0]},{"extensions":{"S8S_v3d_node":{"frustumCulling":true,"hidden":false,"hidpiCompositing":false,"renderOrder":0,"useCastShadows":true,"useShadows":true}},"mesh":47,"name":"backFillBordes_mesh","rotation":[0.0,0.34703259213950427,0.0,0.9378530695119234],"scale":[0.9999999999999999,1.0,0.9999999999999999],"translation":[-28783.81899835827,38311.881239198425,39291.600078006944]},{"children":[63],"extensions":{"S8S_v3d_node":{"hidden":false,"hidpiCompositing":false}},"name":"camaraMain_Pos01","rotation":[0.0,0.0,0.0,1.0],"scale":[1.0,1.0,1.0],"translation":[-21980.38720703125,38814.65588378906,43373.86901855469]},{"children":[51,52],"extensions":{"S8S_v3d_node":{"hidden":false,"hidpiCompositing":false}},"name":"camera1_group","rotation":[0.0,0.0,0.0,1.0],"scale":[1.0,1.0,1.0],"translation":[0.0,0.0,0.0]},{"camera":0,"extensions":{"S8S_v3d_node":{"groupNames":["camera1_group"],"hidden":false,"hidpiCompositing":false}},"name":"camera1","rotation":[-0.351294040237184,-0.1318920890019254,-0.050058449630045944,0.9255761047980765],"scale":[0.9999999999999999,1.0,1.0],"translation":[-35737.51003701873,82492.59612819292,90665.21602904772]},{"children":[64],"extensions":{"S8S_v3d_node":{"groupNames":["camera1_group"],"hidden":false,"hidpiCompositing":false}},"name":"camera1_aim","rotation":[0.0,0.0,0.0,1.0],"scale":[1.0,1.0,1.0],"translation":[-21980.38725442601,38814.65592417712,43373.86901440683]},{"extensions":{"S8S_v3d_node":{"frustumCulling":true,"hidden":false,"hidpiCompositing":false,"renderOrder":0,"useCastShadows":true,"useShadows":true}},"mesh":48,"name":"deshidratacionZNBordes_mesh","rotation":[0.0,0.3568856075404946,0.0,0.9341480948599382],"scale":[1.0,1.0,1.0],"translation":[-19391.56956060472,38318.77024509229,56029.311931829885]},{"extensions":{"S8S_v3d_node":{"frustumCulling":true,"hidden":false,"hidpiCompositing":false,"renderOrder":0,"useCastShadows":true,"useShadows":true}},"mesh":49,"name":"pCube5037","rotation":[0.0,0.3568856075404946,0.0,0.9341480948599382],"scale":[1.0,1.0,1.0],"translation":[-20387.774598462755,38318.77024509229,50242.65684705325]},{"extensions":{"S8S_v3d_node":{"frustumCulling":true,"hidden":false,"hidpiCompositing":false,"renderOrder":0,"useCastShadows":true,"useShadows":true}},"mesh":50,"name":"pCube5038","rotation":[0.0,0.3568856075404946,0.0,0.9341480948599382],"scale":[1.0,1.0,1.0],"translation":[-21602.453146389988,38318.77024509229,47678.03563031202]},{"extensions":{"S8S_v3d_node":{"frustumCulling":true,"hidden":false,"hidpiCompositing":false,"renderOrder":0,"useCastShadows":true,"useShadows":true}},"mesh":51,"name":"pCube5041","rotation":[0.0,0.0,0.0,1.0],"scale":[1.0,1.0,1.0],"translation":[0.0,0.0,0.0]},{"extensions":{"S8S_v3d_node":{"frustumCulling":true,"hidden":false,"hidpiCompositing":false,"renderOrder":0,"useCastShadows":true,"useShadows":true}},"mesh":52,"name":"pCylinder2172","rotation":[0.0,0.0,0.0,1.0],"scale":[1.0,1.0,1.0],"translation":[0.0,0.0,0.0]},{"extensions":{"S8S_v3d_node":{"frustumCulling":true,"hidden":false,"hidpiCompositing":false,"renderOrder":0,"useCastShadows":true,"useShadows":true}},"mesh":53,"name":"models_mesh30","rotation":[0.0,0.0,0.0,1.0],"scale":[1.0,1.0,1.0],"translation":[0.0,0.0,0.0]},{"extensions":{"S8S_v3d_node":{"frustumCulling":true,"hidden":false,"hidpiCompositing":false,"renderOrder":0,"useCastShadows":true,"useShadows":true}},"mesh":54,"name":"pCube5042","rotation":[0.0,0.0,0.0,1.0],"scale":[1.0,1.0,1.0],"translation":[0.0,0.0,0.0]},{"extensions":{"S8S_v3d_node":{"frustumCulling":true,"hidden":false,"hidpiCompositing":false,"renderOrder":0,"useCastShadows":true,"useShadows":true}},"mesh":55,"name":"extrav13_mesh444","rotation":[0.0,0.0,0.0,1.0],"scale":[1.0,1.0,1.0],"translation":[0.0,0.0,0.0]},{"extensions":{"S8S_v3d_node":{"frustumCulling":true,"hidden":false,"hidpiCompositing":false,"renderOrder":0,"useCastShadows":true,"useShadows":true}},"mesh":56,"name":"pCube5043","rotation":[0.0,0.0,0.0,1.0],"scale":[1.0,1.0,1.0],"translation":[0.0,0.0,0.0]},{"children":[65],"extensions":{"S8S_v3d_node":{"hidden":false,"hidpiCompositing":false}},"name":"camaraMain_Dir01","rotation":[0.0,0.0,0.0,1.0],"scale":[1.0,1.0,1.0],"translation":[-35737.510009765625,82492.59619140625,90665.21600341797]},{"extensions":{"S8S_v3d_node":{"hidden":false}},"name":"camaraMain_PosShape1","translation":[0.0,0.0,0.0]},{"extensions":{"S8S_v3d_node":{"groupNames":["camera1_group"],"hidden":true}},"name":"camera1_aimShape","translation":[0.0,0.0,0.0]},{"extensions":{"S8S_v3d_node":{"hidden":false}},"name":"camaraMain_DirShape1","translation":[0.0,0.0,0.0]}],"samplers":[{}],"scene":0,"scenes":[{"extensions":{"S8S_v3d_scene":{"aaMethod":"AUTO","iblEnvironmentMode":"PMREM","physicallyCorrectLights":true,"pmremMaxTileSize":256,"postprocessing":[{"bentNormals":false,"bounceApprox":false,"distance":10.0,"factor":1.0,"precision":0.25,"type":"gtao"},{"edgeGlow":0.0,"edgeStrength":3.0,"edgeThickness":1.0,"hiddenEdgeColor":[0.0,0.0,0.0,1],"pulsePeriod":0.0,"renderHiddenEdge":true,"type":"outline","visibleEdgeColor":[0.13499999046325684,0.700580358505249,1.0,1]}],"shadowMap":{"esmDistanceScale":2.5,"renderReverseSided":false,"renderSingleSided":true,"type":"PCFSOFT"},"unitsScaleFactor":1.0,"useHDR":false,"useOIT":false,"worldMaterial":4}},"extras":{"animFrameRate":30.0,"coordSystem":"Y_UP_RIGHT"},"name":"Scene","nodes":[0,1,2,3,4,5,6,7,8,9,10,11,12,13,14,15,16,17,18,19,20,21,22,23,24,25,26,27,28,29,30,31,32,33,34,35,36,37,38,39,40,41,42,43,44,45,46,47,48,49,50,53,54,55,56,57,58,59,60,61,62]}],"textures":[{"extensions":{"S8S_v3d_texture":{"colorSpace":"srgb"}},"name":"file1","sampler":0,"source":0},{"extensions":{"S8S_v3d_texture":{"colorSpace":"linear","source":1}},"name":"file2","sampler":0}]}